<?xml version="1.0" encoding="UTF-8"?>
<!-- Generator: Adobe Illustrator 27.5.0, SVG Export Plug-In . SVG Version: 6.00 Build 0)  -->
<svg xmlns="http://www.w3.org/2000/svg" xmlns:xlink="http://www.w3.org/1999/xlink" version="1.1" x="0px" y="0px" viewBox="0 0 3710 3710" style="enable-background:new 0 0 3710 3710;" xml:space="preserve">
<g id="Background">
	<g>
		<g>
			<rect style="fill:#FFFFFF;" width="3710" height="3710"></rect>
		</g>
	</g>
</g>
<g id="Illustration">
	<g>
		<path style="fill:#F4F7FA;" d="M3223.761,2426.75c-82.014,315.341-312.954,607.405-872.367,758.51    c-202.151,54.628-437.411,81.45-647.146,64.88c-308.672-24.401-632.192-163.745-889.288-321.731    c-177.927-109.327-248.739-256.851-273.807-423.614c-15.517-103.112-13.551-213.563-8.602-326.892    c7.443-170.485-19.661-342.163-59.788-508.049c-61.755-255.411-10.884-523.321,141.485-743.027    c152.369-219.707,393.14-372.567,667.756-423.93c462.653-86.507,932.013-29.421,932.013-29.421    c618.183,64.213,931.101,677.937,1007.427,1177.49C3256.341,1879.274,3292.819,2161.263,3223.761,2426.75z"></path>
		<g>
			<g>
				<g>
					<defs>
						<path id="SVGID_1_" d="M737.089,1951.66c16.913-11.801,41.521-16.964,61.945-16.735        c144.783,1.627,141.07,304.229,113.485,369.658c-27.585,65.429-15.105,88.684,95.37,133.176        c110.475,44.491,50.527,107.76,33.453,146.236c-17.073,38.477-47.183,69.69,32.226,115.839        c79.409,46.149,48.687,68.176,48.687,68.176s-165.215,143.375-152.696,94.155c12.519-49.221,3.458-125.838-132.716-142.788        c-58.653-7.301-146.477-42.782-161.258-107.442c-3.442-15.057-4.834-37.737-0.051-52.635        c6.635-20.667,21.828-36.134,31.137-55.334c21.692-44.744-20.409-82.275-43.702-115.286        c-12.16-17.234-24.279-34.881-33.095-54.115c-18.304-39.934-6.915-80.215,19.322-113.486        c12.581-15.954,29.61-32.58,36.146-52.305c7.021-21.189,4.876-51.104,5.457-73.449c0.456-17.523,0.223-35.037,2.639-52.443        C697.935,2010.502,708.816,1971.388,737.089,1951.66z"></path>
					</defs>
					
						<linearGradient id="SVGID_00000021113030384506996150000008554485075001599122_" gradientUnits="userSpaceOnUse" x1="918.6451" y1="1881.1337" x2="793.783" y2="3698.5591">
						<stop offset="0" style="stop-color:#FFC444"></stop>
						<stop offset="0.9964" style="stop-color:#F36F56"></stop>
					</linearGradient>
					
						<use xlink:href="#SVGID_1_" style="overflow:visible;fill:url(#SVGID_00000021113030384506996150000008554485075001599122_);"></use>
					<clipPath id="SVGID_00000165936547242779301650000016773270428441701273_">
						<use xlink:href="#SVGID_1_" style="overflow:visible;"></use>
					</clipPath>
					<g style="opacity:0.8;clip-path:url(#SVGID_00000165936547242779301650000016773270428441701273_);">
						<g>
							<path style="fill:#FFFFFF;" d="M1127.053,2856.49c0.956,0.435,2.11,0.109,2.687-0.804c0.63-0.997,0.333-2.316-0.664-2.946         c-0.612-0.387-62.002-39.408-129.011-100.873c-61.744-56.635-141.029-144.453-168.104-241.194         c-22.613-80.798-38.461-212.598-43.482-361.606c-4.502-133.617,1.111-231.703,9.139-249.339         c0.489-1.074,0.015-2.34-1.059-2.828s-2.34-0.015-2.829,1.059c-9.39,20.629-13.572,130.992-9.52,251.252         c5.032,149.334,20.937,281.501,43.637,362.613c27.353,97.732,107.211,186.22,169.386,243.243         c67.285,61.708,128.946,100.895,129.56,101.283C1126.878,2856.404,1126.965,2856.45,1127.053,2856.49z"></path>
						</g>
						<g>
							<path style="fill:#FFFFFF;" d="M786.607,2174.744c1.068,0.486,2.215,0.271,2.708-0.795         c0.654-1.412,66.171-141.372,138.047-168.282c1.105-0.413,1.637-1.582,1.223-2.686c-0.414-1.105-1.658-1.633-2.763-1.22         c-73.519,27.525-137.675,164.547-140.375,170.377c-0.495,1.07,0.074,2.111,1.148,2.6         C786.598,2174.74,786.603,2174.743,786.607,2174.744z"></path>
						</g>
						<g>
							<path style="fill:#FFFFFF;" d="M799.019,2344.315c0.797,0.363,1.77,0.209,2.417-0.456c0.822-0.846,0.803-2.198-0.043-3.02         c-0.366-0.356-37.212-36.011-83.725-67.212c-62.847-42.156-112.481-56.56-147.525-42.812c-1.098,0.43-1.639,1.67-1.208,2.768         c0.432,1.098,1.67,1.639,2.768,1.208c80.625-31.629,225.261,107.699,226.713,109.11         C798.597,2344.079,798.802,2344.216,799.019,2344.315z"></path>
						</g>
						<g>
							<path style="fill:#FFFFFF;" d="M942.911,2700.658c0.209,0.095,0.436,0.157,0.678,0.181c1.174,0.115,2.218-0.744,2.333-1.918         c0.061-0.617,6.244-62.47,24.571-126.669c16.803-58.862,47.506-131.801,98.352-145.012c1.142-0.297,1.827-1.462,1.53-2.604         c-0.296-1.142-1.463-1.827-2.604-1.53c-42.398,11.016-76.514,60.82-101.4,148.029         c-18.425,64.565-24.639,126.751-24.699,127.372C941.58,2699.439,942.103,2700.29,942.911,2700.658z"></path>
						</g>
						<g>
							<path style="fill:#FFFFFF;" d="M863.182,2593.362c0.836,0.381,1.856,0.188,2.492-0.539c0.777-0.887,0.687-2.237-0.201-3.013         c-6.436-5.629-158.356-137.778-222.34-131.606c-1.174,0.113-2.034,1.157-1.921,2.331c0.113,1.174,1.157,2.035,2.331,1.921         c62.172-5.995,217.555,129.203,219.118,130.569C862.822,2593.166,862.998,2593.278,863.182,2593.362z"></path>
						</g>
					</g>
				</g>
			</g>
			<g>
				<g>
					<defs>
						<path id="SVGID_00000002372805252712553210000002711874951661193149_" d="M491.545,2175.615        c13.535-15.56,36.148-26.553,56.015-31.298c140.831-33.634,210.825,260.785,199.981,330.959        c-10.844,70.173,6.917,89.695,124.896,105.982c117.979,16.287,75.218,92.236,68.014,133.71        c-7.203,41.473-28.817,79.072,59.432,104.523c88.249,25.45,63.806,54.287,63.806,54.287s-125.384,179.252-125.212,128.464        c0.172-50.787-27.25-122.901-163.458-106.223c-58.668,7.183-152.484-5.873-182.547-64.997        c-7.001-13.768-13.867-35.428-12.851-51.043c1.41-21.66,12.385-40.358,16.745-61.245        c10.159-48.676-39.807-74.841-70.428-101.196c-15.986-13.759-32.034-27.928-45.263-44.441        c-27.466-34.284-26.216-76.125-8.859-114.778c8.323-18.535,20.798-38.803,22.34-59.525        c1.657-22.261-7.699-50.756-12.57-72.571c-3.82-17.108-8.305-34.039-10.194-51.51        C467.878,2242.214,468.918,2201.628,491.545,2175.615z"></path>
					</defs>
					
						<linearGradient id="SVGID_00000141423241492106468300000008267501057238500495_" gradientUnits="userSpaceOnUse" x1="459.3151" y1="2576.478" x2="1066.7947" y2="2576.478">
						<stop offset="0" style="stop-color:#FF9085"></stop>
						<stop offset="1" style="stop-color:#FB6FBB"></stop>
					</linearGradient>
					
						<use xlink:href="#SVGID_00000002372805252712553210000002711874951661193149_" style="overflow:visible;fill:url(#SVGID_00000141423241492106468300000008267501057238500495_);"></use>
					<clipPath id="SVGID_00000179608483840013090880000005648961712565545397_">
						<use xlink:href="#SVGID_00000002372805252712553210000002711874951661193149_" style="overflow:visible;"></use>
					</clipPath>
					<g style="opacity:0.8;clip-path:url(#SVGID_00000179608483840013090880000005648961712565545397_);">
						<g>
							<path style="fill:#FFFFFF;" d="M1089.861,2958.436c1.033,0.189,2.074-0.408,2.411-1.433c0.369-1.121-0.24-2.328-1.361-2.696         c-0.688-0.227-69.724-23.146-149.67-66.468c-73.664-39.918-171.927-105.817-221.717-193.068         c-41.584-72.872-89.012-196.86-130.121-340.173c-36.863-128.51-55.274-225.017-51.777-244.075         c0.213-1.16-0.555-2.273-1.715-2.486s-2.273,0.555-2.486,1.715c-4.091,22.293,18.694,130.36,51.872,246.023         c41.2,143.627,88.771,267.957,130.517,341.112c50.301,88.146,149.282,154.555,223.459,194.744         c80.272,43.491,149.612,66.505,150.303,66.732C1089.67,2958.395,1089.766,2958.419,1089.861,2958.436z"></path>
						</g>
						<g>
							<path style="fill:#FFFFFF;" d="M594.39,2375.877c1.154,0,1.935,1.765,2.154,0.611c0.291-1.528,29.662-152.199,92.835-195.783         c0.971-0.669,1.133-1.422,0.463-2.392c-0.67-0.971-2.04-0.926-3.012-0.256c-64.617,44.579-93.26,191.178-94.462,197.49         c-0.22,1.158,0.847,0.33,2.008,0.33C594.381,2375.877,594.386,2375.877,594.39,2375.877z"></path>
						</g>
						<g>
							<path style="fill:#FFFFFF;" d="M647.112,2541.419c0.862,0.158,1.768-0.228,2.233-1.03c0.591-1.02,0.244-2.327-0.776-2.919         c-0.442-0.256-44.853-25.88-97.558-44.831c-71.212-25.605-122.859-27.506-153.508-5.647c-0.96,0.685-1.183,2.019-0.499,2.979         c0.686,0.96,2.018,1.183,2.979,0.499c70.512-50.288,244.691,49.681,246.442,50.696         C646.645,2541.292,646.877,2541.376,647.112,2541.419z"></path>
						</g>
						<g>
							<path style="fill:#FFFFFF;" d="M873.349,2852.067c0.226,0.042,0.462,0.047,0.701,0.011c1.166-0.174,1.971-1.261,1.796-2.428         c-0.091-0.613-9.137-62.113-6.974-128.842c1.983-61.181,14.025-139.397,60.131-164.578c1.035-0.566,1.416-1.863,0.851-2.898         c-0.565-1.036-1.863-1.417-2.898-0.851c-38.446,20.997-59.425,77.603-62.354,168.245         c-2.17,67.108,6.928,128.937,7.02,129.554C871.76,2851.208,872.475,2851.907,873.349,2852.067z"></path>
						</g>
						<g>
							<path style="fill:#FFFFFF;" d="M769.918,2767.384c0.904,0.166,1.846-0.269,2.286-1.129c0.538-1.05,0.122-2.337-0.928-2.874         c-7.612-3.895-187.109-95.127-247.671-73.58c-1.112,0.395-1.692,1.617-1.297,2.728c0.395,1.111,1.617,1.692,2.728,1.296         c58.847-20.936,242.446,72.413,244.294,73.357C769.521,2767.281,769.719,2767.347,769.918,2767.384z"></path>
						</g>
					</g>
				</g>
			</g>
		</g>
		<g>
			
				<linearGradient id="SVGID_00000045586842990576157320000011678345027820138666_" gradientUnits="userSpaceOnUse" x1="1235.9762" y1="3064.7849" x2="1136.0051" y2="3106.7727">
				<stop offset="0" style="stop-color:#40447E"></stop>
				<stop offset="0.9964" style="stop-color:#3C3B6B"></stop>
			</linearGradient>
			<path style="fill:url(#SVGID_00000045586842990576157320000011678345027820138666_);" d="M2057.976,3010.081l-1423.12-12.395     v36.673c0,9.954,6.207,18.417,14.614,19.926l402.416,72.216c4.776,0.857,9.619,1.084,14.438,0.678l976.188-82.337     c8.715-0.735,15.465-9.225,15.465-19.452V3010.081z"></path>
			
				<linearGradient id="SVGID_00000151528388441159631610000014686681275672437397_" gradientUnits="userSpaceOnUse" x1="1102.4841" y1="2624.1785" x2="993.9897" y2="2669.7461">
				<stop offset="0" style="stop-color:#40447E"></stop>
				<stop offset="0.9964" style="stop-color:#3C3B6B"></stop>
			</linearGradient>
			<path style="fill:url(#SVGID_00000151528388441159631610000014686681275672437397_);" d="M1599.855,2950.632l-949.337,67.089     c-16.988,1.2-30.8-11.556-30.8-28.495v-678.663c0-16.939,13.812-30.672,30.8-30.672h949.337     c13.995,0,25.311,12.414,25.311,27.727v613.499C1625.166,2936.429,1613.85,2949.643,1599.855,2950.632z"></path>
			
				<linearGradient id="SVGID_00000149355849098338785070000003007332116834936452_" gradientUnits="userSpaceOnUse" x1="634.8555" y1="2648.8445" x2="1640.3033" y2="2648.8445">
				<stop offset="0" style="stop-color:#40447E"></stop>
				<stop offset="0.9964" style="stop-color:#3C3B6B"></stop>
			</linearGradient>
			<path style="fill:url(#SVGID_00000149355849098338785070000003007332116834936452_);" d="M1614.992,2950.632l-949.337,67.089     c-16.988,1.2-30.8-11.556-30.8-28.495v-678.663c0-16.939,13.812-30.672,30.8-30.672h949.337     c13.996,0,25.311,12.414,25.311,27.727v613.499C1640.303,2936.429,1628.988,2949.643,1614.992,2950.632z"></path>
			<path style="fill:#FFFFFF;" d="M1585.418,2907.379l-884.208,58.276c-13.824,0.911-25.059-9.559-25.059-23.388v-594.171     c0-13.829,11.234-25.086,25.059-25.143l884.208-3.659c11.545-0.048,20.884,10.124,20.884,22.72v541.183     C1606.302,2895.792,1596.963,2906.618,1585.418,2907.379z"></path>
			<path style="fill:#FFFFFF;" d="M1173.852,2298.453c0,6.306-4.886,11.433-10.92,11.451c-6.041,0.019-10.944-5.09-10.944-11.41     c0-6.32,4.903-11.447,10.944-11.451C1168.966,2287.038,1173.852,2292.147,1173.852,2298.453z"></path>
			
				<linearGradient id="SVGID_00000128474919405322725560000009432585049009207697_" gradientUnits="userSpaceOnUse" x1="634.8555" y1="3020.6553" x2="2057.9758" y2="3020.6553">
				<stop offset="0" style="stop-color:#40447E"></stop>
				<stop offset="0.9964" style="stop-color:#3C3B6B"></stop>
			</linearGradient>
			<path style="fill:url(#SVGID_00000128474919405322725560000009432585049009207697_);" d="M1591.304,2947.589l-956.449,70.617     l417.03,74.838c4.776,0.857,9.619,1.084,14.438,0.678l991.653-83.642l-451.457-62.011     C1601.47,2947.375,1596.378,2947.215,1591.304,2947.589z"></path>
			
				<linearGradient id="SVGID_00000003788281703170668940000004540301664672016805_" gradientUnits="userSpaceOnUse" x1="774.4163" y1="3008.9951" x2="1817.1276" y2="3008.9951">
				<stop offset="0" style="stop-color:#40447E"></stop>
				<stop offset="0.9964" style="stop-color:#3C3B6B"></stop>
			</linearGradient>
			<polygon style="opacity:0.3;fill:url(#SVGID_00000003788281703170668940000004540301664672016805_);" points="774.416,3019.982      1570.688,2960.315 1817.128,2993.893 1027.715,3057.675    "></polygon>
			<g>
				
					<linearGradient id="SVGID_00000105409839449452594930000015056501952964700556_" gradientUnits="userSpaceOnUse" x1="1024.7866" y1="2567.8931" x2="1375.2684" y2="2015.2939">
					<stop offset="0" style="stop-color:#FF9085"></stop>
					<stop offset="1" style="stop-color:#FB6FBB"></stop>
				</linearGradient>
				<path style="fill:url(#SVGID_00000105409839449452594930000015056501952964700556_);" d="M1606.41,2434.177l-930.367,11.558      v-105.103c0-11.785,9.554-21.339,21.339-21.339h887.69c11.785,0,21.339,9.554,21.339,21.339V2434.177z"></path>
				<g>
					
						<linearGradient id="SVGID_00000091008440339516056380000003245108241181736591_" gradientUnits="userSpaceOnUse" x1="944.825" y1="2497.2092" x2="1237.1693" y2="3130.8848">
						<stop offset="0.0036" style="stop-color:#E38DDD"></stop>
						<stop offset="1" style="stop-color:#9571F6"></stop>
					</linearGradient>
					<polygon style="fill:url(#SVGID_00000091008440339516056380000003245108241181736591_);" points="1259.33,2715.747        733.316,2737.482 733.316,2489.009 1259.33,2480.188      "></polygon>
					
						<linearGradient id="SVGID_00000160155867134506353320000004836243752237147797_" gradientUnits="userSpaceOnUse" x1="1303.0647" y1="2331.6367" x2="1582.6471" y2="2937.6499">
						<stop offset="0.0036" style="stop-color:#E38DDD"></stop>
						<stop offset="1" style="stop-color:#9571F6"></stop>
					</linearGradient>
					<polygon style="fill:url(#SVGID_00000160155867134506353320000004836243752237147797_);" points="1558.615,2703.381        1290.349,2714.466 1290.349,2479.668 1558.615,2475.17      "></polygon>
					
						<linearGradient id="SVGID_00000039856763932077508870000002210471645094298283_" gradientUnits="userSpaceOnUse" x1="997.9695" y1="2506.7573" x2="1265.4799" y2="3086.6033">
						<stop offset="0.0036" style="stop-color:#E38DDD"></stop>
						<stop offset="1" style="stop-color:#9571F6"></stop>
					</linearGradient>
					<polygon style="fill:url(#SVGID_00000039856763932077508870000002210471645094298283_);" points="1558.615,2872.776        733.316,2921.915 733.316,2769.928 1558.615,2733.182      "></polygon>
				</g>
				<path style="fill:#9D3060;" d="M742.748,2378.031c0,6.496-5.761,11.802-12.877,11.852c-7.126,0.05-12.91-5.189-12.91-11.702      c0-6.513,5.784-11.819,12.91-11.852C736.987,2366.296,742.748,2371.535,742.748,2378.031z"></path>
				<path style="fill:#9D3060;" d="M789.316,2377.761c0,6.466-5.708,11.748-12.758,11.797c-7.06,0.049-12.791-5.166-12.791-11.648      s5.731-11.764,12.791-11.797C783.608,2366.08,789.316,2371.295,789.316,2377.761z"></path>
				<path style="fill:#9D3060;" d="M835.457,2377.493c0,6.437-5.656,11.694-12.642,11.742c-6.996,0.049-12.674-5.143-12.674-11.595      c0-6.453,5.678-11.71,12.674-11.742C829.802,2365.865,835.457,2371.056,835.457,2377.493z"></path>
			</g>
			<path style="opacity:0.48;fill:#FFFFFF;" d="M1386.265,2764.498c-73.185-39.377-130.731,10.518-186.266-38.711     c-33.669-29.846-17.139-52.103-58.568-96.705c-45.886-49.4-75.76-32.794-121.875-77.255     c-58.309-56.217-29.146-99.956-79.372-140.318c-60.931-48.965-126.642-3.645-184.644-50.604     c-25.017-20.254-38.743-49.699-45.911-81.015h-56.752c-9.945,0-18.021,8.06-18.021,18.004v703.493     c0,9.943,8.076,17.43,18.021,16.724l967.53-68.677c4.748-0.337,8.958-3.109,11.66-7.128     c-70.826-2.581-114.338-26.324-142.152-50.869C1435.503,2843.419,1444.941,2796.068,1386.265,2764.498z"></path>
		</g>
		<g>
			<path style="fill:#97A6B7;" d="M2636.266,2996.521c-22.006-7.299-38.455-25.976-43.093-48.932l-32.03-158.525l-273.993,9.729     l-33.721,165.149c-4.722,23.129,14.182,46.333,35.955,54.851l114.633,44.852c21.321,8.342,44.239,11.665,67.018,9.716     l242.26-20.725c7.082-0.606,12.762-6.173,13.587-13.315c0.824-7.142,5.786-15.161-0.968-17.401L2636.266,2996.521z"></path>
			
				<linearGradient id="SVGID_00000098222890140920210110000017703346950462008499_" gradientUnits="userSpaceOnUse" x1="2491.7524" y1="2845.4526" x2="2495.9172" y2="3001.6355">
				<stop offset="0" style="stop-color:#444B8C"></stop>
				<stop offset="0.9964" style="stop-color:#26264F"></stop>
			</linearGradient>
			<path style="fill:url(#SVGID_00000098222890140920210110000017703346950462008499_);" d="M2638.977,2986.88     c-21.984-7.208-38.416-25.65-43.05-48.317l-31.998-156.533l-267.314,9.618l-33.687,163.072     c-4.718,22.838,7.765,45.74,29.515,54.152l114.517,44.288c21.3,8.237,44.195,11.518,66.95,9.594l242.016-20.464     c7.075-0.598,12.75-6.095,13.573-13.147c0.823-7.052-3.433-13.708-10.179-15.92L2638.977,2986.88z"></path>
			
				<linearGradient id="SVGID_00000038379888059256402300000006791004320464578954_" gradientUnits="userSpaceOnUse" x1="2525.7551" y1="2651.2878" x2="2066.8054" y2="1040.0145">
				<stop offset="0" style="stop-color:#444B8C"></stop>
				<stop offset="0.9964" style="stop-color:#26264F"></stop>
			</linearGradient>
			<path style="fill:url(#SVGID_00000038379888059256402300000006791004320464578954_);" d="M3076.519,2678.844v-710.822     c0-14.576-12.012-26.984-26.733-27.576l-1221.204-49.09c-18.583-0.747-33.833,12.094-33.833,28.538v785.566L3076.519,2678.844z"></path>
			<g>
				<path style="fill:#FFFFFF;" d="M1832.52,2029.222v613.639c0,15.316,14.158,27.446,31.415,26.955l1158.999-32.961      c13.833-0.394,25.122-11.891,25.122-25.552v-547.295L1832.52,2029.222z"></path>
				
					<linearGradient id="SVGID_00000140727123384789956160000010552988996483095212_" gradientUnits="userSpaceOnUse" x1="2066.749" y1="1609.3096" x2="2903.1638" y2="2507.3193">
					<stop offset="0" style="stop-color:#FF9085"></stop>
					<stop offset="1" style="stop-color:#FB6FBB"></stop>
				</linearGradient>
				<path style="fill:url(#SVGID_00000140727123384789956160000010552988996483095212_);" d="M3048.056,2064.007v-62.809      c0-13.381-11.058-24.742-24.606-25.247l-1160.156-43.281c-16.904-0.631-30.773,11.127-30.773,26.13v70.422L3048.056,2064.007z"></path>
				<g>
					<path style="fill:#9D3060;" d="M1917.326,1981.446c0,5.273-4.806,9.396-10.742,9.208c-5.945-0.188-10.771-4.627-10.771-9.914       c0-5.287,4.826-9.409,10.771-9.207C1912.52,1971.734,1917.326,1976.173,1917.326,1981.446z"></path>
					<path style="fill:#9D3060;" d="M1963.628,1982.966c0,5.242-4.75,9.342-10.617,9.156c-5.875-0.186-10.645-4.598-10.645-9.854       c0-5.256,4.77-9.355,10.645-9.155C1958.879,1973.313,1963.628,1977.724,1963.628,1982.966z"></path>
					<path style="fill:#9D3060;" d="M2009.392,1984.469c0,5.212-4.695,9.288-10.493,9.105c-5.807-0.184-10.521-4.569-10.521-9.795       c0-5.226,4.714-9.302,10.521-9.104C2004.697,1974.873,2009.392,1979.258,2009.392,1984.469z"></path>
				</g>
			</g>
			
				<linearGradient id="SVGID_00000026864806707806580570000009022037046888109977_" gradientUnits="userSpaceOnUse" x1="1794.7483" y1="2782.5664" x2="3076.5186" y2="2782.5664">
				<stop offset="0" style="stop-color:#444B8C"></stop>
				<stop offset="0.9964" style="stop-color:#26264F"></stop>
			</linearGradient>
			<path style="fill:url(#SVGID_00000026864806707806580570000009022037046888109977_);" d="M1794.748,2705.461v156.885     c0,16.444,15.25,29.253,33.833,28.468l1221.204-51.628c14.721-0.623,26.733-13.056,26.733-27.631v-137.269L1794.748,2705.461z"></path>
			<g>
				<g>
					
						<linearGradient id="SVGID_00000144298624932890343140000008329610308798421411_" gradientUnits="userSpaceOnUse" x1="2193.7322" y1="2102.564" x2="2560.0557" y2="2896.594">
						<stop offset="0.0036" style="stop-color:#E38DDD"></stop>
						<stop offset="1" style="stop-color:#9571F6"></stop>
					</linearGradient>
					<polygon style="fill:url(#SVGID_00000144298624932890343140000008329610308798421411_);" points="2594.908,2373.136        1921.509,2376.785 1921.509,2095.606 2594.908,2107.856      "></polygon>
					
						<linearGradient id="SVGID_00000133490224164127698790000016822419896563389860_" gradientUnits="userSpaceOnUse" x1="2658.115" y1="1925.9271" x2="2995.8093" y2="2657.9014">
						<stop offset="0.0036" style="stop-color:#E38DDD"></stop>
						<stop offset="1" style="stop-color:#9571F6"></stop>
					</linearGradient>
					<polygon style="fill:url(#SVGID_00000133490224164127698790000016822419896563389860_);" points="2975.158,2371.076        2634.416,2372.922 2634.416,2108.575 2975.158,2114.774      "></polygon>
					
						<linearGradient id="SVGID_00000118370883909629494860000009364470534156699028_" gradientUnits="userSpaceOnUse" x1="2254.5305" y1="2074.9392" x2="2605.1924" y2="2835.0217">
						<stop offset="0.0036" style="stop-color:#E38DDD"></stop>
						<stop offset="1" style="stop-color:#9571F6"></stop>
					</linearGradient>
					<polygon style="fill:url(#SVGID_00000118370883909629494860000009364470534156699028_);" points="2975.158,2561.32        1921.509,2585.495 1921.509,2413.502 2975.158,2404.545      "></polygon>
				</g>
			</g>
			<g style="opacity:0.48;">
				<path style="fill:#FFFFFF;" d="M2944.248,2587.073c-100.3-33.877-183.278,35.224-255.375-19.184      c-81.28-61.339-15.584-179.177-90.769-248.599c-104.444-96.438-313.252,53.121-403.941-37.796      c-62.351-62.507,11.199-162.581-41.598-267.851c-26.845-53.524-77.147-90.015-138.208-114.818l-185.776-7.468      c-18.583-0.747-33.833,12.094-33.833,28.538v785.566v156.885c0,16.444,15.25,29.253,33.833,28.468l1221.204-51.628      c14.721-0.622,26.733-13.055,26.733-27.631v-101.433C3033.513,2634.091,2986.038,2601.187,2944.248,2587.073z"></path>
			</g>
		</g>
		<g>
			<g style="enable-background:new    ;">
				<g>
					<path style="fill:#413974;" d="M1201.704,1706.341c76.51,3.932,139.931,75.417,143.118,159.651       c0.303,8.009,0.065,15.875-0.719,23.534c12.854-5.831,27.026-8.862,41.965-8.453c60.022,1.643,109.948,58.039,112.462,125.958       c2.389,64.521-38.74,117.719-94.158,123.341c-2.935,0.28-5.904,0.465-8.91,0.492l-539.778,2.841       c-32.952-6.081-59.141-36.268-60.635-72.809c-1.684-41.187,28.671-74.26,67.439-73.829c8.138,0.091,16.027,1.647,23.371,4.457       c-3.337-12.632-5.378-25.77-5.923-39.267c-3.752-92.895,63.505-165.571,148.43-162.292c15.568,0.601,30.618,3.748,44.835,8.981       C1092.342,1741.652,1142.316,1703.289,1201.704,1706.341z"></path>
				</g>
				<g>
					
						<linearGradient id="SVGID_00000165920202628216174450000005376795199949054388_" gradientUnits="userSpaceOnUse" x1="834.2415" y1="1889.7975" x2="1530.8575" y2="1889.7975">
						<stop offset="0.0036" style="stop-color:#E38DDD"></stop>
						<stop offset="1" style="stop-color:#9571F6"></stop>
					</linearGradient>
					<path style="fill:url(#SVGID_00000165920202628216174450000005376795199949054388_);" d="M1236.816,1678.018       c75.755,4.218,138.557,75.608,141.713,159.444c0.3,7.971,0.064,15.798-0.712,23.417c12.73-5.75,26.764-8.707,41.558-8.239       c59.445,1.882,108.894,58.215,111.385,125.821c2.366,64.224-38.371,116.992-93.257,122.35       c-2.907,0.266-5.847,0.438-8.824,0.451l-534.369,0.512c-32.609-6.19-58.524-36.331-60.002-72.687       c-1.666-40.978,28.371-73.75,66.736-73.159c8.053,0.124,15.86,1.705,23.129,4.531c-3.302-12.581-5.322-25.659-5.861-39.088       c-3.713-92.427,62.85-164.454,146.907-160.849c15.41,0.661,30.308,3.853,44.381,9.117       C1128.547,1712.714,1178.019,1674.744,1236.816,1678.018z"></path>
				</g>
			</g>
		</g>
		<g>
			<g>
				<g>
					<path style="fill:#413974;" d="M1691.192,1639.043c-7.685,0-13.916-6.231-13.916-13.916v-43.487       c0-7.685,6.231-13.916,13.916-13.916c7.685,0,13.916,6.231,13.916,13.916v43.487       C1705.108,1632.813,1698.877,1639.043,1691.192,1639.043z"></path>
				</g>
				<g>
					<path style="fill:#413974;" d="M1691.192,2451.756c-7.685,0-13.916-6.231-13.916-13.916v-81.271       c0-7.685,6.231-13.916,13.916-13.916c7.685,0,13.916,6.231,13.916,13.916v81.271       C1705.108,2445.525,1698.877,2451.756,1691.192,2451.756z M1691.192,2289.213c-7.685,0-13.916-6.231-13.916-13.916v-81.271       c0-7.685,6.231-13.916,13.916-13.916c7.685,0,13.916,6.231,13.916,13.916v81.271       C1705.108,2282.982,1698.877,2289.213,1691.192,2289.213z M1691.192,2126.67c-7.685,0-13.916-6.231-13.916-13.916v-81.271       c0-7.685,6.231-13.916,13.916-13.916c7.685,0,13.916,6.231,13.916,13.916v81.271       C1705.108,2120.439,1698.877,2126.67,1691.192,2126.67z M1691.192,1964.127c-7.685,0-13.916-6.231-13.916-13.916v-81.271       c0-7.685,6.231-13.916,13.916-13.916c7.685,0,13.916,6.231,13.916,13.916v81.271       C1705.108,1957.896,1698.877,1964.127,1691.192,1964.127z M1691.192,1801.584c-7.685,0-13.916-6.231-13.916-13.916v-81.271       c0-7.685,6.231-13.916,13.916-13.916c7.685,0,13.916,6.231,13.916,13.916v81.271       C1705.108,1795.354,1698.877,1801.584,1691.192,1801.584z"></path>
				</g>
				<g>
					<path style="fill:#413974;" d="M1705.108,2576.794l-80.01-1.588c-7.683-0.151-13.789-6.504-13.636-14.189       c0.151-7.683,6.404-13.768,14.189-13.636l51.624,1.024v-29.293c0-7.685,6.231-13.916,13.916-13.916       c7.685,0,13.916,6.231,13.916,13.916V2576.794z"></path>
				</g>
			</g>
			<g>
				<g>
					<path style="fill:#413974;" d="M2274.175,1677.188c-7.685,0-13.916-6.231-13.916-13.916v-43.488       c0-7.685,6.231-13.916,13.916-13.916s13.916,6.231,13.916,13.916v43.488C2288.091,1670.957,2281.86,1677.188,2274.175,1677.188       z"></path>
				</g>
				<g>
					<path style="fill:#413974;" d="M2274.175,1821.905c-7.685,0-13.916-6.231-13.916-13.916v-72.357       c0-7.685,6.231-13.916,13.916-13.916s13.916,6.231,13.916,13.916v72.357C2288.091,1815.674,2281.86,1821.905,2274.175,1821.905       z"></path>
				</g>
				<g>
					<path style="fill:#413974;" d="M2274.175,1937.751c-7.685,0-13.916-6.231-13.916-13.916v-43.487       c0-7.685,6.231-13.916,13.916-13.916s13.916,6.231,13.916,13.916v43.487C2288.091,1931.52,2281.86,1937.751,2274.175,1937.751z       "></path>
				</g>
			</g>
			<g>
				<g>
					<path style="fill:#413974;" d="M2634.416,1728.05c-7.685,0-13.916-6.231-13.916-13.916v-43.488       c0-7.685,6.231-13.916,13.916-13.916s13.916,6.231,13.916,13.916v43.488C2648.332,1721.819,2642.101,1728.05,2634.416,1728.05z       "></path>
				</g>
				<g>
					<path style="fill:#413974;" d="M2634.416,1845.216c-7.685,0-13.916-6.231-13.916-13.916v-58.582       c0-7.685,6.231-13.916,13.916-13.916s13.916,6.231,13.916,13.916v58.582       C2648.332,1838.985,2642.101,1845.216,2634.416,1845.216z"></path>
				</g>
				<g>
					<path style="fill:#413974;" d="M2634.416,1947.288c-7.685,0-13.916-6.231-13.916-13.916v-43.487       c0-7.685,6.231-13.916,13.916-13.916s13.916,6.231,13.916,13.916v43.487       C2648.332,1941.057,2642.101,1947.288,2634.416,1947.288z"></path>
				</g>
			</g>
			<g>
				<g>
					<path style="fill:#413974;" d="M1290.349,2058.261c-7.685,0-13.916-6.231-13.916-13.916v-43.487       c0-7.685,6.231-13.916,13.916-13.916c7.685,0,13.916,6.231,13.916,13.916v43.487       C1304.266,2052.03,1298.035,2058.261,1290.349,2058.261z"></path>
				</g>
				<g>
					<path style="fill:#413974;" d="M1290.349,2175.427c-7.685,0-13.916-6.231-13.916-13.916v-58.582       c0-7.685,6.231-13.916,13.916-13.916c7.685,0,13.916,6.231,13.916,13.916v58.582       C1304.266,2169.196,1298.035,2175.427,1290.349,2175.427z"></path>
				</g>
				<g>
					<path style="fill:#413974;" d="M1290.349,2277.497c-7.685,0-13.916-6.231-13.916-13.916v-43.488       c0-7.685,6.231-13.916,13.916-13.916c7.685,0,13.916,6.231,13.916,13.916v43.488       C1304.266,2271.266,1298.035,2277.497,1290.349,2277.497z"></path>
				</g>
			</g>
		</g>
		<g>
			<g>
				<g style="enable-background:new    ;">
					<g>
						<path style="fill:#413974;" d="M2677.53,1507.868c-18.229,47.558-47.836,88.193-85.478,118.251        c-41.227,32.981-92.124,53.229-148.309,56.081c-7.828,0.348-15.761,0.418-23.762,0.139l-1361.854-54.967        c-78.381-17.917-140.306-91.95-143.821-178.299c-3.131-77.026,41.157-140.552,105.518-161.773        c16.941-5.602,35.312-8.246,54.551-7.446c19.551,0.835,38.442,5.149,56.08,12.385c-4-14.96-7.167-30.198-9.567-45.714        c-2.434-15.829-4-31.902-4.661-48.184c-6.47-159.234,75.877-292.41,200.112-350.683        c48.358-22.683,103.048-34.025,161.321-31.137c0.382,0.035,0.765,0.035,1.148,0.07c38.094,1.983,75.145,9.984,110.179,22.961        c5.253-15.238,11.446-29.954,18.543-44.009c33.71-67.005,87.218-119.782,153.005-150.397        c45.957-21.396,97.899-32.007,153.215-29.085c197.469,10.402,363.487,189.223,371.906,399.459        c0.8,20.039,0.173,39.626-1.879,58.655c33.954-13.846,71.459-20.595,111.153-18.751        c160.73,7.445,295.993,153.215,302.847,325.6C2699.587,1426.563,2692.246,1469.459,2677.53,1507.868z"></path>
					</g>
					<g>
						
							<linearGradient id="SVGID_00000141453842080141757920000015013713156550105786_" gradientUnits="userSpaceOnUse" x1="969.9149" y1="1116.4586" x2="2750.8926" y2="1116.4586">
							<stop offset="0.0036" style="stop-color:#E38DDD"></stop>
							<stop offset="1" style="stop-color:#9571F6"></stop>
						</linearGradient>
						<path style="fill:url(#SVGID_00000141453842080141757920000015013713156550105786_);" d="M2711.032,1516.113        c-28.005,48.706-69.266,87.113-118.981,110.005c-29.084,13.394-61.091,21.465-95.046,23.17        c-7.828,0.383-15.725,0.453-23.728,0.139l-1359.591-55.594c-78.277-17.951-140.099-91.95-143.614-178.229        c-2.122-51.803,17.256-97.516,49.751-128.305c26.475-25.083,61.682-40.252,101.064-40.775c2.991-0.07,5.985-0.034,9.012,0.104        c19.481,0.835,38.337,5.15,55.976,12.385c-8.037-30.232-12.907-61.682-14.195-93.828        c-5.461-134.115,52.115-249.723,144.657-317.528c48.254-35.451,106.04-57.821,169.356-63.04        c15.309-1.287,30.929-1.565,46.793-0.764c25.605,1.287,50.69,5.253,75.043,11.689c12.245,3.2,24.282,7.028,36.112,11.411        c22.926-66.519,63.838-122.495,116.893-161.808c57.37-42.513,128.968-65.545,207.349-61.37        c197.156,10.507,362.894,189.258,371.279,399.319c0.8,20.039,0.173,39.591-1.879,58.621        c33.92-13.812,71.353-20.561,111.015-18.717c160.45,7.55,295.47,153.25,302.324,325.495        C2753.094,1410.943,2738.412,1468.45,2711.032,1516.113z"></path>
					</g>
				</g>
			</g>
			<g>
				<g>
					<g>
						<polygon style="fill:#FFFFFF;" points="1675.098,1152.146 1634.339,1222.769 1564.775,1185.746 1576.998,1231.421         1646.553,1268.411 1687.32,1197.82       "></polygon>
					</g>
					<path style="fill:#FFFFFF;" d="M2141.741,1043.279l-53.544-21.555c-15.336-20.026-34.238-37.646-56.32-51.998       c-109.477-71.129-261.361-38.103-338.586,73.605c-32.077,46.377-47.29,99.974-44.092,153.676       c0.597,10.452,1.915,20.922,3.935,31.34c1.74,8.924-4.251,17.883-13.385,20.026c-9.118,2.143-17.919-3.355-19.658-12.279       c-1.458-7.571-2.6-15.143-3.425-22.732c-7.027-65.437,10.066-131.366,49.152-187.896       c87.905-127.167,260.817-164.761,385.437-83.794c15.458,10.048,29.529,21.502,42.161,34.132       C2113.282,995.69,2129.514,1018.492,2141.741,1043.279z"></path>
				</g>
				<g>
					<g>
						<polygon style="fill:#FFFFFF;" points="2116.528,1218.484 2157.287,1147.862 2226.851,1184.884 2214.628,1139.21         2145.073,1102.219 2104.306,1172.81       "></polygon>
					</g>
					<path style="fill:#FFFFFF;" d="M2125.825,1345.167c-87.922,127.167-260.834,164.743-385.454,83.777       c-15.459-10.031-29.53-21.484-42.161-34.115c-19.376-19.412-35.31-41.599-47.431-65.701l56.672,24.857       c14.58,17.936,32.112,33.799,52.314,46.921c109.46,71.129,261.344,38.103,338.568-73.605       c32.077-46.377,47.29-99.974,44.093-153.693c-0.598-10.453-1.915-20.905-3.935-31.322c-1.739-8.924,4.251-17.883,13.386-20.026       c9.117-2.143,17.918,3.355,19.657,12.279c1.458,7.571,2.6,15.143,3.426,22.732       C2181.987,1222.708,2164.895,1288.637,2125.825,1345.167z"></path>
				</g>
			</g>
			
				<linearGradient id="SVGID_00000083800668813578822680000000797409565581502393_" gradientUnits="userSpaceOnUse" x1="914.1494" y1="1233.5647" x2="2711.032" y2="1233.5647">
				<stop offset="0.0036" style="stop-color:#E38DDD"></stop>
				<stop offset="1" style="stop-color:#9571F6"></stop>
			</linearGradient>
			<path style="opacity:0.2;fill:url(#SVGID_00000083800668813578822680000000797409565581502393_);" d="M2711.032,1516.113     c-28.005,48.706-69.266,87.113-118.981,110.005c-41.227,32.981-92.124,53.229-148.309,56.081     c-7.828,0.348-15.761,0.418-23.762,0.139l-1361.854-54.967c-78.381-17.917-140.306-91.95-143.821-178.299     c-3.131-77.026,41.157-140.552,105.518-161.773c26.475-25.083,61.682-40.252,101.064-40.775c-2.434-15.829-4-31.902-4.661-48.184     c-6.47-159.234,75.877-292.41,200.112-350.683c48.254-35.451,106.04-57.821,169.356-63.04c-2.4,9.429-4.801,20.178-6.887,31.973     c-15.656,88.749-13.57,235.667,141.976,313.11c9.812,4.905,20.249,9.498,31.311,13.812c16.247,6.297,33.886,11.967,53.021,16.838     c108.092,27.589,277.205-78.555,425.656-33.328c3.34,1.009,6.679,3.375,9.983,3.375h0.036     c10.958,3.479,21.813,8.558,32.493,14.298c18.231,9.811,36.008,22.475,53.16,38.652c28.805,27.102,55.802,63.996,80.26,113.398     c97.794,197.606,248.957,185.909,370.826,211.131C2688.976,1510.207,2700.179,1512.912,2711.032,1516.113z"></path>
		</g>
		<g>
			<g style="enable-background:new    ;">
				<g>
					<path style="fill:#413974;" d="M2781.773,1418.79c69.617,3.649,128.488,65.972,131.475,139.181       c0.284,6.964,0.035,13.79-0.673,20.424c12.072-4.733,25.434-7.007,39.578-6.265c57.458,3.011,106.027,54.426,108.491,114.849       c2.342,57.414-37.778,102.291-91.075,104.056c-2.799,0.076-5.628,0.067-8.49-0.083l-476.224-26.57       c-26.807-6.547-47.966-32.119-49.168-61.592c-1.354-33.206,23.163-58.802,54.739-57.147c6.701,0.351,13.188,1.886,19.238,4.428       c-2.75-10.402-4.431-21.164-4.88-32.168c-3.088-75.689,52.74-134.002,124.714-130.23c13.377,0.701,26.365,3.522,38.685,8.088       C2684.844,1448.013,2728.767,1416.012,2781.773,1418.79z"></path>
				</g>
				<g>
					
						<linearGradient id="SVGID_00000046341062117555272770000017493125531611409025_" gradientUnits="userSpaceOnUse" x1="2465.8325" y1="1580.1019" x2="3090.9409" y2="1580.1019">
						<stop offset="0.0036" style="stop-color:#E38DDD"></stop>
						<stop offset="1" style="stop-color:#9571F6"></stop>
					</linearGradient>
					<path style="fill:url(#SVGID_00000046341062117555272770000017493125531611409025_);" d="M2811.972,1394.04       c69.617,3.648,128.488,65.971,131.475,139.181c0.284,6.964,0.035,13.79-0.673,20.424c12.071-4.733,25.433-7.007,39.578-6.265       c57.458,3.011,106.027,54.425,108.491,114.849c2.342,57.414-37.778,102.29-91.075,104.056c-2.799,0.076-5.628,0.067-8.49-0.083       l-476.224-26.57c-26.807-6.547-47.966-32.119-49.168-61.592c-1.354-33.206,23.163-58.802,54.739-57.147       c6.702,0.351,13.188,1.886,19.239,4.428c-2.75-10.402-4.431-21.164-4.88-32.168c-3.087-75.689,52.74-134.002,124.714-130.23       c13.377,0.701,26.365,3.522,38.685,8.088C2715.044,1423.264,2758.966,1391.262,2811.972,1394.04z"></path>
				</g>
			</g>
		</g>
		<g>
			<defs>
				<path id="SVGID_00000145026051271874475400000011554076632624206216_" d="M2595.757,2934.668c0,0,4.654,36.069,32.754,48.584      c34.5,15.366,96.84,23.814,100.899,41.789s16.517,22.717,16.517,22.717l176.559,27.397l264.404-259.765l29.572-391.967      l-203.521-32.337v-84.79h-271.362v379.211l-145.09,96.523L2595.757,2934.668z"></path>
			</defs>
			<clipPath id="SVGID_00000147930774949571975910000001822592647583184513_">
				<use xlink:href="#SVGID_00000145026051271874475400000011554076632624206216_" style="overflow:visible;"></use>
			</clipPath>
			<g style="clip-path:url(#SVGID_00000147930774949571975910000001822592647583184513_);">
				<g>
					<g>
						<defs>
							<path id="SVGID_00000016063770652666940870000018190059718089129639_" d="M2911.981,2321.433         c-14.408-10.053-35.372-14.452-52.772-14.257c-123.342,1.386-120.179,259.177-96.679,314.916s12.868,75.551-81.247,113.454         s-43.044,91.802-28.499,124.581s40.196,59.37-27.454,98.685c-67.65,39.315-41.477,58.08-41.477,58.08         s140.748,122.143,130.083,80.211c-10.665-41.932-2.946-107.203,113.062-121.643c49.967-6.22,124.785-36.447,137.378-91.531         c2.932-12.827,4.118-32.149,0.043-44.841c-5.653-17.606-18.596-30.783-26.526-47.14         c-18.48-38.118,17.387-70.091,37.23-98.213c10.359-14.682,20.684-29.715,28.194-46.102         c15.593-34.021,5.891-68.336-16.461-96.68c-10.718-13.591-25.225-27.755-30.793-44.559         c-5.981-18.051-4.154-43.536-4.648-62.572c-0.388-14.928-0.19-29.848-2.249-44.677         C2945.337,2371.562,2936.068,2338.24,2911.981,2321.433z"></path>
						</defs>
						
							<linearGradient id="SVGID_00000077290981712254925150000006806146425070501282_" gradientUnits="userSpaceOnUse" x1="2833.3706" y1="2251.0076" x2="2724.2046" y2="3839.9695">
							<stop offset="0" style="stop-color:#FFC444"></stop>
							<stop offset="0.9964" style="stop-color:#F36F56"></stop>
						</linearGradient>
						
							<use xlink:href="#SVGID_00000016063770652666940870000018190059718089129639_" style="overflow:visible;fill:url(#SVGID_00000077290981712254925150000006806146425070501282_);"></use>
						<clipPath id="SVGID_00000035496779462328595100000011777482431912502657_">
							<use xlink:href="#SVGID_00000016063770652666940870000018190059718089129639_" style="overflow:visible;"></use>
						</clipPath>
						<g style="opacity:0.8;clip-path:url(#SVGID_00000035496779462328595100000011777482431912502657_);">
							<g>
								<path style="fill:#FFFFFF;" d="M2579.767,3092.269c-0.815,0.371-1.798,0.093-2.29-0.685          c-0.537-0.849-0.284-1.973,0.566-2.51c0.521-0.33,52.82-33.572,109.906-85.935c52.6-48.248,120.144-123.062,143.21-205.476          c19.264-68.833,32.766-181.115,37.043-308.056c3.835-113.83-0.947-197.391-7.785-212.415          c-0.417-0.915-0.013-1.993,0.902-2.41c0.915-0.416,1.993-0.012,2.41,0.902c8,17.574,11.562,111.594,8.11,214.044          c-4.286,127.22-17.836,239.815-37.175,308.914c-23.302,83.26-91.334,158.643-144.302,207.222          c-57.321,52.57-109.85,85.953-110.374,86.284C2579.915,3092.195,2579.841,3092.235,2579.767,3092.269z"></path>
							</g>
							<g>
								<path style="fill:#FFFFFF;" d="M2869.797,2511.481c-0.91,0.414-1.887,0.231-2.307-0.677          c-0.557-1.203-56.372-120.436-117.604-143.362c-0.941-0.352-1.394-1.347-1.042-2.288c0.353-0.941,1.413-1.392,2.354-1.039          c62.632,23.449,117.287,140.18,119.587,145.146c0.422,0.912-0.063,1.798-0.978,2.215          C2869.804,2511.478,2869.8,2511.48,2869.797,2511.481z"></path>
							</g>
							<g>
								<path style="fill:#FFFFFF;" d="M2859.222,2655.941c-0.679,0.309-1.508,0.178-2.059-0.388c-0.7-0.72-0.684-1.873,0.037-2.573          c0.312-0.303,31.701-30.679,71.326-57.259c53.54-35.913,95.823-48.184,125.678-36.472c0.936,0.367,1.396,1.423,1.029,2.358          c-0.368,0.936-1.423,1.396-2.358,1.029c-68.686-26.945-191.903,91.75-193.139,92.952          C2859.582,2655.739,2859.408,2655.856,2859.222,2655.941z"></path>
							</g>
							<g>
								<path style="fill:#FFFFFF;" d="M2736.639,2959.514c-0.178,0.081-0.372,0.134-0.577,0.154c-1,0.098-1.89-0.634-1.987-1.634          c-0.052-0.526-5.319-53.219-20.932-107.911c-14.315-50.145-40.471-112.283-83.787-123.538          c-0.973-0.253-1.556-1.246-1.303-2.219c0.252-0.973,1.246-1.557,2.219-1.303c36.119,9.385,65.183,51.813,86.384,126.107          c15.697,55.004,20.99,107.981,21.041,108.51C2737.773,2958.475,2737.327,2959.2,2736.639,2959.514z"></path>
							</g>
							<g>
								<path style="fill:#FFFFFF;" d="M2804.561,2868.107c-0.713,0.324-1.581,0.16-2.123-0.459          c-0.662-0.756-0.585-1.906,0.171-2.567c5.483-4.795,134.905-117.374,189.414-112.117c1,0.096,1.733,0.986,1.636,1.986          c-0.096,1-0.985,1.734-1.986,1.636c-52.965-5.108-185.338,110.07-186.669,111.233          C2804.868,2867.94,2804.719,2868.035,2804.561,2868.107z"></path>
							</g>
						</g>
					</g>
				</g>
				<g>
					<g>
						<defs>
							<path id="SVGID_00000079474508763834354160000016686552644393883568_" d="M3184.617,2455.753         c-8.948-15.119-26.206-27.808-42.124-34.838c-112.834-49.837-216.754,186.101-218.457,246.568         c-1.703,60.467-19.588,74.093-120.949,69.6c-101.361-4.493-77.209,65.721-77.55,101.58s11.988,70.688-65.871,78.444         c-77.859,7.756-61.812,35.678-61.812,35.678s77.5,169.478,85.165,126.896c7.665-42.583,41.731-98.791,153.298-63.873         c48.054,15.04,128.672,18.525,162.954-26.394c7.983-10.46,17.067-27.554,18.616-40.794         c2.149-18.366-4.172-35.721-4.613-53.894c-1.028-42.349,44.862-56.59,74.573-73.965c15.51-9.071,31.136-18.476,44.76-30.279         c28.286-24.504,33.672-59.756,25.071-94.813c-4.124-16.811-11.46-35.711-9.566-53.313         c2.035-18.907,14.255-41.345,21.692-58.875c5.831-13.748,12.193-27.245,16.462-41.594         C3194.208,2515.196,3199.577,2481.028,3184.617,2455.753z"></path>
						</defs>
						
							<linearGradient id="SVGID_00000137813846405173782940000010491364475467134881_" gradientUnits="userSpaceOnUse" x1="2596.4885" y1="2750.2979" x2="3194.0854" y2="2750.2979">
							<stop offset="0" style="stop-color:#FF9085"></stop>
							<stop offset="1" style="stop-color:#FB6FBB"></stop>
						</linearGradient>
						
							<use xlink:href="#SVGID_00000079474508763834354160000016686552644393883568_" style="overflow:visible;fill:url(#SVGID_00000137813846405173782940000010491364475467134881_);"></use>
						<clipPath id="SVGID_00000058583518352209855590000003231631106668165004_">
							<use xlink:href="#SVGID_00000079474508763834354160000016686552644393883568_" style="overflow:visible;"></use>
						</clipPath>
						<g style="opacity:0.8;clip-path:url(#SVGID_00000058583518352209855590000003231631106668165004_);">
							<g>
								<path style="fill:#FFFFFF;" d="M2562.908,3019.697c-0.895,0-1.675-0.66-1.8-1.572c-0.137-0.996,0.559-1.914,1.555-2.05          c0.611-0.084,61.982-8.673,135.632-32.681c67.863-22.122,160.332-62.23,215.468-127.684          c46.049-54.667,104.854-151.267,161.337-265.031c50.648-102.013,80.914-180.047,80.914-196.554          c0-1.005,0.814-1.819,1.82-1.819c1.005,0,1.819,0.814,1.819,1.819c0,19.309-35.708,106.357-81.294,198.172          c-56.606,114.013-115.585,210.877-161.813,265.757c-55.701,66.125-148.851,106.551-217.185,128.82          c-73.949,24.099-135.589,32.721-136.203,32.805C2563.074,3019.691,2562.991,3019.697,2562.908,3019.697z"></path>
							</g>
							<g>
								<path style="fill:#FFFFFF;" d="M3067.49,2608.97c-1,0-1.813,0.568-1.819-0.433c-0.009-1.325-1.412-132.399-47.645-178.632          c-0.711-0.71-0.711-1.519,0-2.229c0.711-0.711,1.862-0.539,2.573,0.172c47.29,47.289,48.674,175.106,48.71,180.579          c0.007,1.004-0.802,0.542-1.808,0.542C3067.497,2608.97,3067.493,2608.97,3067.49,2608.97z"></path>
							</g>
							<g>
								<path style="fill:#FFFFFF;" d="M2998.018,2738.347c-0.746,0-1.446-0.463-1.713-1.207c-0.339-0.946,0.153-1.988,1.099-2.326          c0.41-0.147,41.563-14.789,88.639-22.564c63.608-10.506,107.176-4.156,129.495,18.872c0.699,0.721,0.681,1.874-0.04,2.573          c-0.722,0.699-1.873,0.681-2.573-0.04c-51.351-52.979-212.671,4.004-214.294,4.586          C2998.429,2738.313,2998.222,2738.347,2998.018,2738.347z"></path>
							</g>
							<g>
								<path style="fill:#FFFFFF;" d="M2760.684,2963.859c-0.195,0-0.394-0.032-0.589-0.099c-0.951-0.325-1.458-1.36-1.132-2.311          c0.171-0.5,17.206-50.641,25.654-106.887c7.746-51.57,9.682-118.96-25.079-147.149c-0.781-0.633-0.9-1.779-0.267-2.559          c0.633-0.781,1.779-0.901,2.559-0.267c28.986,23.505,37.861,74.162,26.378,150.564          c-8.501,56.564-25.631,106.974-25.803,107.477C2762.146,2963.384,2761.44,2963.859,2760.684,2963.859z"></path>
							</g>
							<g>
								<path style="fill:#FFFFFF;" d="M2860.371,2908.805c-0.783,0-1.506-0.51-1.742-1.297c-0.289-0.962,0.257-1.977,1.219-2.265          c6.977-2.093,171.41-50.939,218.843-23.572c0.871,0.502,1.169,1.615,0.667,2.485c-0.502,0.871-1.615,1.17-2.485,0.667          c-46.09-26.591-214.285,23.397-215.979,23.905C2860.72,2908.78,2860.544,2908.805,2860.371,2908.805z"></path>
							</g>
						</g>
					</g>
				</g>
			</g>
		</g>
	</g>
</g>
</svg>
