<?xml version="1.0" encoding="UTF-8"?>
<svg xmlns="http://www.w3.org/2000/svg" xmlns:xlink="http://www.w3.org/1999/xlink" id="Layer_2" data-name="Layer 2" viewBox="0 0 361.23 369.07">
  <defs>
    <style>
      .cls-1, .cls-2, .cls-3, .cls-4, .cls-5, .cls-6, .cls-7, .cls-8, .cls-9, .cls-10, .cls-11, .cls-12, .cls-13, .cls-14, .cls-15, .cls-16 {
        stroke-width: 0px;
      }

      .cls-1, .cls-17 {
        fill: #1393f2;
      }

      .cls-18 {
        clip-path: url(#clippath);
      }

      .cls-19, .cls-9 {
        fill: #dad9e8;
      }

      .cls-2 {
        fill: #c4c3ec;
      }

      .cls-3 {
        fill: #cfc4b8;
        opacity: .3;
      }

      .cls-4 {
        fill: #b7b6e3;
      }

      .cls-5 {
        fill: #e4e3ee;
      }

      .cls-20, .cls-7 {
        fill: #9731cb;
      }

      .cls-6 {
        fill: #171c29;
      }

      .cls-21 {
        clip-path: url(#clippath-1);
      }

      .cls-22 {
        clip-path: url(#clippath-4);
      }

      .cls-23 {
        clip-path: url(#clippath-3);
      }

      .cls-24 {
        clip-path: url(#clippath-2);
      }

      .cls-25 {
        clip-path: url(#clippath-7);
      }

      .cls-26 {
        clip-path: url(#clippath-8);
      }

      .cls-27 {
        clip-path: url(#clippath-6);
      }

      .cls-28 {
        clip-path: url(#clippath-5);
      }

      .cls-29 {
        clip-path: url(#clippath-9);
      }

      .cls-30 {
        clip-path: url(#clippath-14);
      }

      .cls-31 {
        clip-path: url(#clippath-13);
      }

      .cls-32 {
        clip-path: url(#clippath-12);
      }

      .cls-33 {
        clip-path: url(#clippath-10);
      }

      .cls-34 {
        clip-path: url(#clippath-15);
      }

      .cls-35 {
        clip-path: url(#clippath-11);
      }

      .cls-8 {
        fill: #d4d5f0;
      }

      .cls-10 {
        fill: #21152b;
      }

      .cls-11 {
        fill: #eeeff2;
      }

      .cls-12 {
        fill: #8719a1;
      }

      .cls-13 {
        fill: #042f8f;
      }

      .cls-14, .cls-36 {
        fill: #ebebf1;
      }

      .cls-37 {
        isolation: isolate;
      }

      .cls-15 {
        fill: #919dd6;
      }

      .cls-16 {
        fill: #fff;
      }
    </style>
    <clipPath id="clippath">
      <path class="cls-1" d="M186.7,242.19v2.47c-1.27-.35-2.49-.68-3.65-.99-1.16-.31-2.23-.59-3.22-.84-.99-.25-1.85-.47-2.6-.66-.75-.19-1.34-.34-1.78-.44v-2.47c.44.1,1.03.25,1.78.44.75.19,1.61.41,2.6.66.99.25,2.06.53,3.22.84,1.16.31,2.37.65,3.64.99Z"></path>
    </clipPath>
    <clipPath id="clippath-1">
      <path class="cls-1" d="M194.9,244.64v2.47c-1.07-.3-2.14-.59-3.19-.89v-2.47c1.06.3,2.12.59,3.19.89Z"></path>
    </clipPath>
    <clipPath id="clippath-2">
      <path class="cls-1" d="M197.98,245.53v2.47c-1-.29-2.02-.59-3.09-.89v-2.47c1.07.3,2.1.59,3.09.89Z"></path>
    </clipPath>
    <clipPath id="clippath-3">
      <path class="cls-1" d="M181.41,255.16v2.47c-1.53-1.81-2.91-3.5-4.16-5.06-1.25-1.56-2.4-3.05-3.45-4.46-1.05-1.41-2.03-2.77-2.92-4.06-.89-1.3-1.73-2.59-2.5-3.87v-2.47c.78,1.28,1.61,2.58,2.51,3.87.9,1.3,1.87,2.65,2.92,4.06,1.05,1.41,2.2,2.9,3.45,4.46,1.25,1.56,2.63,3.25,4.15,5.06Z"></path>
    </clipPath>
    <clipPath id="clippath-4">
      <path class="cls-9" d="M136.27,185.24l-8.49-4.93c-.93-.54-1.62-1.61-1.89-3.3l8.49,4.93c.27,1.69.95,2.76,1.89,3.3Z"></path>
    </clipPath>
    <clipPath id="clippath-5">
      <path class="cls-9" d="M143.58,96.66l8.49,4.93c-2.48-1.44-5.91-1.26-9.76.96l-8.49-4.93c3.85-2.22,7.28-2.4,9.76-.96Z"></path>
    </clipPath>
    <clipPath id="clippath-6">
      <path class="cls-14" d="M126.23,130.18l-8.49-4.93c-1.39-8.81,5.04-21.25,13.5-26.13l8.49,4.93c-8.46,4.88-14.89,17.32-13.5,26.13Z"></path>
    </clipPath>
    <clipPath id="clippath-7">
      <path class="cls-7" d="M151.7,102.99l5.91,3.44c-2.51-1.46-5.99-1.25-9.82.96l-5.91-3.44c3.84-2.22,7.31-2.42,9.82-.96Z"></path>
    </clipPath>
    <clipPath id="clippath-8">
      <path class="cls-7" d="M138.06,140.09l-5.91-3.44c-2.48-1.44-4.02-4.5-4.03-8.86-.02-8.76,6.14-19.44,13.77-23.85l5.91,3.44c-7.63,4.4-13.79,15.08-13.77,23.85.01,4.35,1.55,7.41,4.03,8.85Z"></path>
    </clipPath>
    <clipPath id="clippath-9">
      <path class="cls-7" d="M149.17,113.17l-1.37-5.78c7.63-4.4,13.83-.87,13.85,7.9.02,8.76-6.14,19.44-13.76,23.84-7.63,4.4-13.83.87-13.86-7.89-.02-8.76,6.14-19.44,13.77-23.85l1.37,5.78c-5.22,3.01-9.46,10.35-9.44,16.35.01,6,4.28,8.43,9.5,5.41,5.22-3.01,9.46-10.34,9.44-16.34-.01-6.01-4.27-8.44-9.5-5.42Z"></path>
    </clipPath>
    <clipPath id="clippath-10">
      <path class="cls-7" d="M236.07,132.15l5.91,3.44c-2.51-1.46-5.99-1.25-9.82.96l-5.91-3.44c3.84-2.22,7.31-2.42,9.82-.96Z"></path>
    </clipPath>
    <clipPath id="clippath-11">
      <path class="cls-7" d="M222.42,169.25l-5.91-3.44c-2.48-1.44-4.02-4.5-4.03-8.85-.02-8.76,6.14-19.44,13.77-23.85l5.91,3.44c-7.63,4.4-13.79,15.08-13.77,23.85.01,4.35,1.55,7.41,4.03,8.85Z"></path>
    </clipPath>
    <clipPath id="clippath-12">
      <path class="cls-7" d="M233.53,142.33l-1.37-5.78c7.63-4.4,13.83-.86,13.85,7.9.02,8.76-6.14,19.43-13.76,23.84-7.63,4.4-13.83.87-13.86-7.89-.02-8.76,6.14-19.44,13.77-23.85l1.37,5.78c-5.22,3.01-9.46,10.35-9.44,16.35.01,6,4.28,8.43,9.5,5.41,5.22-3.01,9.46-10.34,9.44-16.34-.01-6.01-4.27-8.44-9.5-5.42Z"></path>
    </clipPath>
    <clipPath id="clippath-13">
      <path class="cls-9" d="M236.14,223.39l-8.49-4.93c-.93-.54-1.62-1.61-1.89-3.3l8.49,4.93c.27,1.69.95,2.76,1.89,3.3Z"></path>
    </clipPath>
    <clipPath id="clippath-14">
      <path class="cls-9" d="M243.45,134.81l8.49,4.93c-2.48-1.44-5.91-1.26-9.76.96l-8.49-4.93c3.85-2.22,7.28-2.4,9.76-.96Z"></path>
    </clipPath>
    <clipPath id="clippath-15">
      <path class="cls-14" d="M226.09,168.33l-8.49-4.93c-1.39-8.81,5.04-21.25,13.5-26.13l8.49,4.93c-8.46,4.88-14.89,17.32-13.5,26.13Z"></path>
    </clipPath>
  </defs>
  <g id="Layer_1-2" data-name="Layer 1">
    <g>
      <g>
        <polygon class="cls-3" points="188.99 303.51 212.07 303.51 300.64 252.31 222.89 206.44 167.32 236.96 188.99 303.51"></polygon>
        <g>
          <g class="cls-37">
            <polygon class="cls-5" points="104.34 232.69 108.47 230.29 114.07 233.52 109.94 235.92 104.34 232.69"></polygon>
            <polygon class="cls-4" points="114.92 230.89 119.04 228.49 114.82 235.39 110.69 237.79 114.92 230.89"></polygon>
            <polygon class="cls-15" points="124.68 235.09 128.81 232.7 128.8 234.13 124.68 236.52 124.68 235.09"></polygon>
            <polygon class="cls-5" points="114.16 229.02 118.29 226.62 128.81 232.7 124.68 235.09 114.16 229.02"></polygon>
            <polygon class="cls-15" points="124.68 235.09 124.68 236.52 114.92 230.89 110.69 237.79 104.34 234.12 104.34 232.69 109.94 235.92 114.16 229.02 124.68 235.09"></polygon>
          </g>
          <g class="cls-37">
            <polygon class="cls-5" points="119.67 223.96 123.8 221.56 129.4 224.79 125.27 227.19 119.67 223.96"></polygon>
            <polygon class="cls-4" points="130.25 222.16 134.37 219.76 130.15 226.66 126.02 229.06 130.25 222.16"></polygon>
            <polygon class="cls-15" points="140.01 226.36 144.14 223.96 144.13 225.39 140.01 227.79 140.01 226.36"></polygon>
            <polygon class="cls-5" points="129.49 220.29 133.62 217.89 144.14 223.96 140.01 226.36 129.49 220.29"></polygon>
            <polygon class="cls-15" points="140.01 226.36 140.01 227.79 130.25 222.16 126.02 229.06 119.67 225.39 119.67 223.96 125.27 227.19 129.49 220.29 140.01 226.36"></polygon>
          </g>
          <g class="cls-37">
            <polygon class="cls-5" points="134.35 215.21 138.48 212.81 144.08 216.04 139.95 218.44 134.35 215.21"></polygon>
            <polygon class="cls-4" points="144.93 213.41 149.06 211.01 144.83 217.91 140.71 220.31 144.93 213.41"></polygon>
            <polygon class="cls-15" points="154.69 217.62 158.82 215.22 158.82 216.65 154.69 219.05 154.69 217.62"></polygon>
            <polygon class="cls-5" points="144.17 211.54 148.3 209.15 158.82 215.22 154.69 217.62 144.17 211.54"></polygon>
            <polygon class="cls-15" points="154.69 217.62 154.69 219.05 144.93 213.41 140.71 220.31 134.35 216.64 134.35 215.21 139.95 218.44 144.17 211.54 154.69 217.62"></polygon>
          </g>
          <g class="cls-37">
            <polygon class="cls-5" points="89.19 242.18 93.31 239.79 98.91 243.02 94.78 245.41 89.19 242.18"></polygon>
            <polygon class="cls-4" points="99.76 240.39 103.89 237.99 99.67 244.89 95.54 247.29 99.76 240.39"></polygon>
            <polygon class="cls-15" points="109.53 244.59 113.65 242.19 113.65 243.62 109.52 246.02 109.53 244.59"></polygon>
            <polygon class="cls-5" points="99.01 238.52 103.14 236.12 113.65 242.19 109.53 244.59 99.01 238.52"></polygon>
            <polygon class="cls-15" points="109.53 244.59 109.52 246.02 99.76 240.39 95.54 247.29 89.18 243.62 89.19 242.18 94.78 245.41 99.01 238.52 109.53 244.59"></polygon>
          </g>
          <g class="cls-37">
            <polygon class="cls-5" points="150.67 205.99 154.8 203.59 160.4 206.82 156.27 209.22 150.67 205.99"></polygon>
            <polygon class="cls-4" points="161.25 204.19 165.38 201.79 161.15 208.69 157.03 211.09 161.25 204.19"></polygon>
            <polygon class="cls-15" points="171.01 208.39 175.14 206 175.14 207.43 171.01 209.83 171.01 208.39"></polygon>
            <polygon class="cls-5" points="160.49 202.32 164.62 199.92 175.14 206 171.01 208.39 160.49 202.32"></polygon>
            <polygon class="cls-15" points="171.01 208.39 171.01 209.83 161.25 204.19 157.03 211.09 150.67 207.42 150.67 205.99 156.27 209.22 160.49 202.32 171.01 208.39"></polygon>
          </g>
          <g class="cls-37">
            <polygon class="cls-5" points="166.36 197.08 170.49 194.68 176.08 197.91 171.96 200.31 166.36 197.08"></polygon>
            <polygon class="cls-4" points="176.94 195.28 181.06 192.89 176.84 199.79 172.71 202.18 176.94 195.28"></polygon>
            <polygon class="cls-15" points="186.7 199.49 190.83 197.09 190.82 198.52 186.7 200.92 186.7 199.49"></polygon>
            <polygon class="cls-5" points="176.18 193.42 180.31 191.02 190.83 197.09 186.7 199.49 176.18 193.42"></polygon>
            <polygon class="cls-15" points="186.7 199.49 186.7 200.92 176.94 195.28 172.71 202.18 166.36 198.51 166.36 197.08 171.96 200.31 176.18 193.42 186.7 199.49"></polygon>
          </g>
        </g>
        <g>
          <g class="cls-37">
            <polygon class="cls-5" points="272.35 232.9 268.22 230.5 262.63 233.73 266.75 236.13 272.35 232.9"></polygon>
            <polygon class="cls-4" points="261.78 231.1 257.65 228.7 261.87 235.6 266 238 261.78 231.1"></polygon>
            <polygon class="cls-15" points="252.01 235.31 247.89 232.91 247.89 234.34 252.02 236.74 252.01 235.31"></polygon>
            <polygon class="cls-5" points="262.53 229.23 258.4 226.84 247.89 232.91 252.01 235.31 262.53 229.23"></polygon>
            <polygon class="cls-15" points="252.01 235.31 252.02 236.74 261.78 231.1 266 238 272.36 234.33 272.35 232.9 266.75 236.13 262.53 229.23 252.01 235.31"></polygon>
          </g>
          <g class="cls-37">
            <polygon class="cls-5" points="257.02 224.17 252.89 221.77 247.3 225 251.42 227.4 257.02 224.17"></polygon>
            <polygon class="cls-4" points="246.45 222.37 242.32 219.97 246.54 226.87 250.67 229.27 246.45 222.37"></polygon>
            <polygon class="cls-15" points="236.68 226.58 232.56 224.18 232.56 225.61 236.69 228.01 236.68 226.58"></polygon>
            <polygon class="cls-5" points="247.2 220.5 243.07 218.11 232.56 224.18 236.68 226.58 247.2 220.5"></polygon>
            <polygon class="cls-15" points="236.68 226.58 236.69 228.01 246.45 222.37 250.67 229.27 257.03 225.6 257.02 224.17 251.42 227.4 247.2 220.5 236.68 226.58"></polygon>
          </g>
          <g class="cls-37">
            <polygon class="cls-5" points="242.34 215.42 238.21 213.03 232.62 216.26 236.74 218.66 242.34 215.42"></polygon>
            <polygon class="cls-4" points="231.76 213.63 227.64 211.23 231.86 218.13 235.99 220.53 231.76 213.63"></polygon>
            <polygon class="cls-15" points="222 217.83 217.87 215.43 217.88 216.86 222 219.26 222 217.83"></polygon>
            <polygon class="cls-5" points="232.52 211.76 228.39 209.36 217.87 215.43 222 217.83 232.52 211.76"></polygon>
            <polygon class="cls-15" points="222 217.83 222 219.26 231.76 213.63 235.99 220.53 242.34 216.86 242.34 215.42 236.74 218.66 232.52 211.76 222 217.83"></polygon>
          </g>
          <g class="cls-37">
            <polygon class="cls-5" points="287.51 242.4 283.38 240 277.78 243.23 281.91 245.63 287.51 242.4"></polygon>
            <polygon class="cls-4" points="276.93 240.6 272.8 238.2 277.03 245.1 281.15 247.5 276.93 240.6"></polygon>
            <polygon class="cls-15" points="267.17 244.8 263.04 242.41 263.04 243.84 267.17 246.24 267.17 244.8"></polygon>
            <polygon class="cls-5" points="277.69 238.73 273.56 236.33 263.04 242.41 267.17 244.8 277.69 238.73"></polygon>
            <polygon class="cls-15" points="267.17 244.8 267.17 246.24 276.93 240.6 281.15 247.5 287.51 243.83 287.51 242.4 281.91 245.63 277.69 238.73 267.17 244.8"></polygon>
          </g>
          <g class="cls-37">
            <polygon class="cls-5" points="226.02 206.2 221.89 203.8 216.29 207.03 220.42 209.43 226.02 206.2"></polygon>
            <polygon class="cls-4" points="215.44 204.4 211.32 202.01 215.54 208.91 219.67 211.3 215.44 204.4"></polygon>
            <polygon class="cls-15" points="205.68 208.61 201.55 206.21 201.56 207.64 205.68 210.04 205.68 208.61"></polygon>
            <polygon class="cls-5" points="216.2 202.54 212.07 200.14 201.55 206.21 205.68 208.61 216.2 202.54"></polygon>
            <polygon class="cls-15" points="205.68 208.61 205.68 210.04 215.44 204.4 219.67 211.3 226.02 207.63 226.02 206.2 220.42 209.43 216.2 202.54 205.68 208.61"></polygon>
          </g>
          <g class="cls-37">
            <polygon class="cls-5" points="210.33 197.3 206.21 194.9 200.61 198.13 204.74 200.53 210.33 197.3"></polygon>
            <polygon class="cls-4" points="199.76 195.5 195.63 193.1 199.85 200 203.98 202.4 199.76 195.5"></polygon>
            <polygon class="cls-15" points="189.99 199.7 185.87 197.3 185.87 198.74 190 201.13 189.99 199.7"></polygon>
            <polygon class="cls-5" points="200.51 193.63 196.39 191.23 185.87 197.3 189.99 199.7 200.51 193.63"></polygon>
            <polygon class="cls-15" points="189.99 199.7 190 201.13 199.76 195.5 203.98 202.4 210.34 198.73 210.33 197.3 204.74 200.53 200.51 193.63 189.99 199.7"></polygon>
          </g>
        </g>
        <g class="cls-37">
          <polygon class="cls-7" points="277.48 242.23 277.45 252.11 189 303.51 189.03 293.63 277.48 242.23"></polygon>
          <polygon class="cls-7" points="189.03 293.63 189 303.51 99.97 252.11 100 242.23 189.03 293.63"></polygon>
          <polygon class="cls-12" points="277.48 242.23 189.03 293.63 100 242.23 188.45 190.83 277.48 242.23"></polygon>
        </g>
        <g>
          <polygon class="cls-8" points="256.28 239.72 256.27 244.66 188.94 283.79 188.95 278.85 256.28 239.72"></polygon>
          <polygon class="cls-2" points="188.95 278.85 188.94 283.79 121.17 244.66 121.18 239.72 188.95 278.85"></polygon>
          <polygon class="cls-16" points="256.28 239.72 188.95 278.85 121.18 239.72 188.51 200.6 256.28 239.72"></polygon>
        </g>
        <g>
          <g class="cls-37">
            <polygon class="cls-2" points="92.74 267.72 88.61 265.32 92.78 253.58 96.91 255.98 92.74 267.72"></polygon>
            <polygon class="cls-5" points="96.91 255.98 92.78 253.58 103.3 247.51 107.42 249.9 96.91 255.98"></polygon>
            <polygon class="cls-5" points="87.14 270.95 83.01 268.56 88.61 265.32 92.74 267.72 87.14 270.95"></polygon>
            <polygon class="cls-4" points="87.14 272.39 83.01 269.99 83.01 268.56 87.14 270.95 87.14 272.39"></polygon>
            <polygon class="cls-15" points="107.42 249.9 107.43 251.34 97.67 256.97 93.5 268.72 87.14 272.39 87.14 270.95 92.74 267.72 96.91 255.98 107.42 249.9"></polygon>
          </g>
          <g class="cls-37">
            <polygon class="cls-2" points="108.25 276.6 104.13 274.2 108.3 262.46 112.42 264.86 108.25 276.6"></polygon>
            <polygon class="cls-5" points="112.42 264.86 108.3 262.46 118.82 256.39 122.94 258.79 112.42 264.86"></polygon>
            <polygon class="cls-5" points="102.65 279.84 98.53 277.44 104.13 274.2 108.25 276.6 102.65 279.84"></polygon>
            <polygon class="cls-4" points="102.66 281.27 98.53 278.87 98.53 277.44 102.65 279.84 102.66 281.27"></polygon>
            <polygon class="cls-15" points="122.94 258.79 122.95 260.22 113.18 265.85 109.02 277.6 102.66 281.27 102.65 279.84 108.25 276.6 112.42 264.86 122.94 258.79"></polygon>
          </g>
          <g class="cls-37">
            <polygon class="cls-2" points="123.65 285.58 119.52 283.18 123.69 271.43 127.82 273.83 123.65 285.58"></polygon>
            <polygon class="cls-5" points="127.82 273.83 123.69 271.43 134.21 265.36 138.34 267.76 127.82 273.83"></polygon>
            <polygon class="cls-5" points="118.05 288.81 113.92 286.41 119.52 283.18 123.65 285.58 118.05 288.81"></polygon>
            <polygon class="cls-4" points="118.05 290.24 113.93 287.84 113.92 286.41 118.05 288.81 118.05 290.24"></polygon>
            <polygon class="cls-15" points="138.34 267.76 138.34 269.19 128.58 274.83 124.41 286.57 118.05 290.24 118.05 288.81 123.65 285.58 127.82 273.83 138.34 267.76"></polygon>
          </g>
          <g class="cls-37">
            <polygon class="cls-2" points="139.04 294.49 134.91 292.09 139.08 280.34 143.21 282.74 139.04 294.49"></polygon>
            <polygon class="cls-5" points="143.21 282.74 139.08 280.34 149.6 274.27 153.73 276.67 143.21 282.74"></polygon>
            <polygon class="cls-5" points="133.44 297.72 129.31 295.32 134.91 292.09 139.04 294.49 133.44 297.72"></polygon>
            <polygon class="cls-4" points="133.44 299.15 129.31 296.75 129.31 295.32 133.44 297.72 133.44 299.15"></polygon>
            <polygon class="cls-15" points="153.73 276.67 153.73 278.1 143.97 283.74 139.8 295.48 133.44 299.15 133.44 297.72 139.04 294.49 143.21 282.74 153.73 276.67"></polygon>
          </g>
          <g class="cls-37">
            <polygon class="cls-2" points="154.62 303.33 150.49 300.93 154.66 289.19 158.79 291.59 154.62 303.33"></polygon>
            <polygon class="cls-5" points="158.79 291.59 154.66 289.19 165.18 283.12 169.31 285.52 158.79 291.59"></polygon>
            <polygon class="cls-5" points="149.02 306.57 144.89 304.17 150.49 300.93 154.62 303.33 149.02 306.57"></polygon>
            <polygon class="cls-4" points="149.03 308 144.9 305.6 144.89 304.17 149.02 306.57 149.03 308"></polygon>
            <polygon class="cls-15" points="169.31 285.52 169.32 286.95 159.55 292.58 155.38 304.33 149.03 308 149.02 306.57 154.62 303.33 158.79 291.59 169.31 285.52"></polygon>
          </g>
          <g class="cls-37">
            <polygon class="cls-2" points="169.91 312.26 165.78 309.86 169.95 298.11 174.08 300.51 169.91 312.26"></polygon>
            <polygon class="cls-5" points="174.08 300.51 169.95 298.11 180.47 292.04 184.6 294.44 174.08 300.51"></polygon>
            <polygon class="cls-5" points="164.31 315.49 160.18 313.09 165.78 309.86 169.91 312.26 164.31 315.49"></polygon>
            <polygon class="cls-4" points="164.31 316.92 160.18 314.52 160.18 313.09 164.31 315.49 164.31 316.92"></polygon>
            <polygon class="cls-15" points="184.6 294.44 184.6 295.87 174.84 301.51 170.67 313.25 164.31 316.92 164.31 315.49 169.91 312.26 174.08 300.51 184.6 294.44"></polygon>
          </g>
        </g>
        <g>
          <g class="cls-37">
            <polygon class="cls-2" points="285.05 267.88 289.18 265.49 285.01 253.74 280.88 256.14 285.05 267.88"></polygon>
            <polygon class="cls-5" points="280.88 256.14 285.01 253.74 274.49 247.67 270.36 250.07 280.88 256.14"></polygon>
            <polygon class="cls-5" points="290.65 271.12 294.77 268.72 289.18 265.49 285.05 267.88 290.65 271.12"></polygon>
            <polygon class="cls-4" points="290.64 272.55 294.77 270.15 294.77 268.72 290.65 271.12 290.64 272.55"></polygon>
            <polygon class="cls-15" points="270.36 250.07 270.36 251.5 280.12 257.13 284.29 268.88 290.64 272.55 290.65 271.12 285.05 267.88 280.88 256.14 270.36 250.07"></polygon>
          </g>
          <g class="cls-37">
            <polygon class="cls-2" points="269.53 276.77 273.66 274.37 269.49 262.62 265.36 265.02 269.53 276.77"></polygon>
            <polygon class="cls-5" points="265.36 265.02 269.49 262.62 258.97 256.55 254.84 258.95 265.36 265.02"></polygon>
            <polygon class="cls-5" points="275.13 280 279.26 277.6 273.66 274.37 269.53 276.77 275.13 280"></polygon>
            <polygon class="cls-4" points="275.13 281.43 279.25 279.03 279.26 277.6 275.13 280 275.13 281.43"></polygon>
            <polygon class="cls-15" points="254.84 258.95 254.84 260.38 264.6 266.02 268.77 277.76 275.13 281.43 275.13 280 269.53 276.77 265.36 265.02 254.84 258.95"></polygon>
          </g>
          <g class="cls-37">
            <polygon class="cls-2" points="254.14 285.74 258.26 283.34 254.09 271.6 249.97 274 254.14 285.74"></polygon>
            <polygon class="cls-5" points="249.97 274 254.09 271.6 243.57 265.52 239.45 267.92 249.97 274"></polygon>
            <polygon class="cls-5" points="259.74 288.97 263.86 286.57 258.26 283.34 254.14 285.74 259.74 288.97"></polygon>
            <polygon class="cls-4" points="259.73 290.4 263.86 288.01 263.86 286.57 259.74 288.97 259.73 290.4"></polygon>
            <polygon class="cls-15" points="239.45 267.92 239.44 269.35 249.21 274.99 253.37 286.73 259.73 290.4 259.74 288.97 254.14 285.74 249.97 274 239.45 267.92"></polygon>
          </g>
          <g class="cls-37">
            <polygon class="cls-2" points="238.75 294.65 242.87 292.25 238.7 280.51 234.58 282.9 238.75 294.65"></polygon>
            <polygon class="cls-5" points="234.58 282.9 238.7 280.51 228.18 274.43 224.06 276.83 234.58 282.9"></polygon>
            <polygon class="cls-5" points="244.35 297.88 248.47 295.48 242.87 292.25 238.75 294.65 244.35 297.88"></polygon>
            <polygon class="cls-4" points="244.34 299.31 248.47 296.91 248.47 295.48 244.35 297.88 244.34 299.31"></polygon>
            <polygon class="cls-15" points="224.06 276.83 224.05 278.26 233.82 283.9 237.98 295.64 244.34 299.31 244.35 297.88 238.75 294.65 234.58 282.9 224.06 276.83"></polygon>
          </g>
          <g class="cls-37">
            <polygon class="cls-2" points="223.16 303.5 227.29 301.1 223.12 289.35 218.99 291.75 223.16 303.5"></polygon>
            <polygon class="cls-5" points="218.99 291.75 223.12 289.35 212.6 283.28 208.47 285.68 218.99 291.75"></polygon>
            <polygon class="cls-5" points="228.76 306.73 232.89 304.33 227.29 301.1 223.16 303.5 228.76 306.73"></polygon>
            <polygon class="cls-4" points="228.76 308.16 232.89 305.76 232.89 304.33 228.76 306.73 228.76 308.16"></polygon>
            <polygon class="cls-15" points="208.47 285.68 208.47 287.11 218.23 292.74 222.4 304.49 228.76 308.16 228.76 306.73 223.16 303.5 218.99 291.75 208.47 285.68"></polygon>
          </g>
          <g class="cls-37">
            <polygon class="cls-2" points="207.88 312.42 212.01 310.02 207.83 298.28 203.71 300.68 207.88 312.42"></polygon>
            <polygon class="cls-5" points="203.71 300.68 207.83 298.28 197.32 292.2 193.19 294.6 203.71 300.68"></polygon>
            <polygon class="cls-5" points="213.48 315.65 217.6 313.25 212.01 310.02 207.88 312.42 213.48 315.65"></polygon>
            <polygon class="cls-4" points="213.47 317.08 217.6 314.69 217.6 313.25 213.48 315.65 213.47 317.08"></polygon>
            <polygon class="cls-15" points="193.19 294.6 193.18 296.03 202.95 301.67 207.11 313.41 213.47 317.08 213.48 315.65 207.88 312.42 203.71 300.68 193.19 294.6"></polygon>
          </g>
        </g>
        <g>
          <g>
            <polygon class="cls-7" points="144.56 239.72 147.87 241.63 188.59 265.14 188.59 214.13 144.56 239.72"></polygon>
            <polygon class="cls-7" points="188.59 214.13 188.59 265.14 188.87 265.31 229.6 241.64 232.9 239.72 188.59 214.13"></polygon>
          </g>
          <polygon class="cls-10" points="229.6 241.64 188.87 265.31 147.87 241.63 188.59 217.96 229.6 241.64"></polygon>
        </g>
        <polygon class="cls-12" points="229.6 241.64 188.87 265.31 147.87 241.63 188.59 217.96 229.6 241.64"></polygon>
        <g>
          <g class="cls-37">
            <polygon class="cls-8" points="210.75 238.11 210.74 240.59 205.91 243.39 205.91 240.92 210.75 238.11"></polygon>
            <polygon class="cls-2" points="205.91 240.92 205.91 243.39 184.3 230.92 184.31 228.45 205.91 240.92"></polygon>
            <polygon class="cls-11" points="210.75 238.11 205.91 240.92 184.31 228.45 189.14 225.64 210.75 238.11"></polygon>
          </g>
          <g class="cls-37">
            <g class="cls-37">
              <path class="cls-17" d="M186.7,242.19v2.47c-1.27-.35-2.49-.68-3.65-.99-1.16-.31-2.23-.59-3.22-.84-.99-.25-1.85-.47-2.6-.66-.75-.19-1.34-.34-1.78-.44v-2.47c.44.1,1.03.25,1.78.44.75.19,1.61.41,2.6.66.99.25,2.06.53,3.22.84,1.16.31,2.37.65,3.64.99Z"></path>
              <g class="cls-18">
                <g class="cls-37">
                  <path class="cls-2" d="M186.7,242.19v2.47c-1.27-.35-2.49-.68-3.65-.99-1.16-.31-2.23-.59-3.22-.84-.99-.25-1.85-.47-2.6-.66-.75-.19-1.34-.34-1.78-.44v-2.47c.44.1,1.03.25,1.78.44.75.19,1.61.41,2.6.66.99.25,2.06.53,3.22.84,1.16.31,2.37.65,3.64.99Z"></path>
                </g>
              </g>
            </g>
            <g class="cls-37">
              <path class="cls-17" d="M194.9,244.64v2.47c-1.07-.3-2.14-.59-3.19-.89v-2.47c1.06.3,2.12.59,3.19.89Z"></path>
              <g class="cls-21">
                <g class="cls-37">
                  <path class="cls-2" d="M194.9,244.64v2.47c-1.07-.3-2.14-.59-3.19-.89v-2.47c1.06.3,2.12.59,3.19.89Z"></path>
                </g>
              </g>
            </g>
            <g class="cls-37">
              <path class="cls-17" d="M197.98,245.53v2.47c-1-.29-2.02-.59-3.09-.89v-2.47c1.07.3,2.1.59,3.09.89Z"></path>
              <g class="cls-24">
                <g class="cls-37">
                  <path class="cls-2" d="M197.98,245.53v2.47c-1-.29-2.02-.59-3.09-.89v-2.47c1.07.3,2.1.59,3.09.89Z"></path>
                </g>
              </g>
            </g>
            <polygon class="cls-8" points="203.16 242.52 203.15 245 197.97 248 197.98 245.53 203.16 242.52"></polygon>
            <polygon class="cls-8" points="191.72 243.76 191.71 246.23 183.32 251.1 183.33 248.63 191.72 243.76"></polygon>
            <g class="cls-37">
              <path class="cls-17" d="M181.41,255.16v2.47c-1.53-1.81-2.91-3.5-4.16-5.06-1.25-1.56-2.4-3.05-3.45-4.46-1.05-1.41-2.03-2.77-2.92-4.06-.89-1.3-1.73-2.59-2.5-3.87v-2.47c.78,1.28,1.61,2.58,2.51,3.87.9,1.3,1.87,2.65,2.92,4.06,1.05,1.41,2.2,2.9,3.45,4.46,1.25,1.56,2.63,3.25,4.15,5.06Z"></path>
              <g class="cls-23">
                <g class="cls-37">
                  <path class="cls-2" d="M181.41,255.16v2.47c-1.53-1.81-2.91-3.5-4.16-5.06-1.25-1.56-2.4-3.05-3.45-4.46-1.05-1.41-2.03-2.77-2.92-4.06-.89-1.3-1.73-2.59-2.5-3.87v-2.47c.78,1.28,1.61,2.58,2.51,3.87.9,1.3,1.87,2.65,2.92,4.06,1.05,1.41,2.2,2.9,3.45,4.46,1.25,1.56,2.63,3.25,4.15,5.06Z"></path>
                </g>
              </g>
            </g>
            <polygon class="cls-8" points="186.43 252.24 186.42 254.71 181.41 257.63 181.41 255.16 186.43 252.24"></polygon>
            <path class="cls-11" d="M194.9,244.64c-1.07-.3-2.13-.59-3.18-.89l-8.38,4.87c.52.61,1.03,1.23,1.55,1.84.52.62,1.04,1.21,1.55,1.77l-5.02,2.92c-1.52-1.81-2.9-3.5-4.15-5.06-1.25-1.56-2.4-3.05-3.45-4.46-1.05-1.41-2.03-2.77-2.92-4.06-.89-1.3-1.73-2.59-2.5-3.87l4.58-2.66c2.2.45,4.43.94,6.68,1.44,2.25.51,4.6,1.06,7.04,1.67,2.44.6,5.01,1.27,7.71,1.98,2.7.72,5.62,1.51,8.75,2.39l-5.17,3.01c-.99-.29-2.02-.59-3.08-.89ZM180.56,245.76l6.14-3.57c-1.27-.35-2.48-.68-3.64-.99-1.16-.31-2.23-.59-3.22-.84-.99-.25-1.85-.47-2.6-.66-.75-.19-1.34-.34-1.78-.44.21.24.48.58.81,1.01.33.43.72.93,1.16,1.49.44.56.93,1.19,1.45,1.87.52.68,1.08,1.39,1.68,2.13Z"></path>
          </g>
        </g>
        <path class="cls-12" d="M189.21,342.56l-146.35-84.5,145.41-84.5,146.35,84.5-145.41,84.5ZM46.74,258.05l142.46,82.25,141.53-82.25-142.46-82.25-141.53,82.25Z"></path>
        <g>
          <g>
            <path class="cls-12" d="M65.56,270.04l-10.82,6.25c-.16.09-.36.09-.51,0l-11.1-6.41-36.02,20.8-3.36,1.94c-.08.05-.17.07-.26.07-.18,0-.35-.09-.44-.26-.14-.24-.06-.56.19-.7l2.83-1.63,36.8-21.25c.16-.09.35-.09.51,0l11.1,6.41,10.05-5.8,1.03.59Z"></path>
            <path class="cls-12" d="M152.81,319.43l-1.71.98-9.85,5.69c-.16.09-.35.09-.51,0l-11.09-6.41-14.01,8.09-1.03.59-21.28,12.29-3.07,1.77c-.08.05-.17.07-.26.07-.18,0-.35-.09-.44-.26-.14-.25-.06-.56.19-.7l2.73-1.58,21.1-12.18,1.03-.59,14.78-8.53c.16-.09.35-.09.51,0l11.09,6.41,9.08-5.24,1.71-.99,1.03.59Z"></path>
            <path class="cls-12" d="M119.14,299.99l-1.71.99-9.57,5.53c-.16.09-.35.09-.51,0l-11.09-6.41-14.28,8.24-1.03.59-20.45,11.81-3.62,2.09c-.08.04-.17.07-.26.07-.18,0-.35-.09-.44-.26-.14-.25-.06-.56.19-.7l3.31-1.91,20.25-11.69,1.03-.59,15.05-8.69c.16-.09.35-.09.51,0l11.09,6.41,8.8-5.08,1.71-.99,1.03.59Z"></path>
            <path class="cls-12" d="M92.28,284.48l-1.71.99-36.19,20.89-2.72,1.57c-.08.05-.17.07-.26.07-.18,0-.35-.09-.44-.26-.14-.24-.06-.56.19-.7l2.26-1.31,36.14-20.87,1.71-.99,1.03.59Z"></path>
            <path class="cls-12" d="M165.2,326.58l-1.71.98-35.69,20.61-2.76,1.59c-.08.04-.17.07-.26.07-.18,0-.35-.09-.44-.26-.14-.25-.06-.56.19-.7l2.24-1.29,35.7-20.62,1.71-.99,1.03.59Z"></path>
            <path class="cls-12" d="M130.66,306.64l-1.71.99-24.11,13.92-1.03.59-10.93,6.31s0,0,0,0l-2.86,1.65c-.08.05-.17.07-.26.07-.18,0-.35-.09-.44-.26-.14-.24-.06-.56.19-.7l2.37-1.37,10.92-6.3,1.02-.59,24.11-13.92,1.71-.99,1.03.59Z"></path>
            <polygon class="cls-12" points="130.13 336.15 116.61 343.95 112.83 346.13 112.32 345.24 115.72 343.28 128.08 336.15 114.62 328.37 113.59 327.78 103.82 322.14 102.8 321.54 80.95 308.93 79.92 308.34 71.04 303.21 95.99 288.6 97.69 287.6 98.71 288.19 97.01 289.19 73.08 303.2 80.95 307.75 81.97 308.34 103.82 320.95 104.84 321.54 114.62 327.19 115.64 327.78 130.13 336.15"></polygon>
            <path class="cls-12" d="M6.67,290.38c1.53.88,1.53,2.31,0,3.19-1.53.88-4,.88-5.53,0-1.53-.88-1.53-2.31,0-3.19,1.53-.88,4-.88,5.53,0Z"></path>
            <g>
              <path class="cls-12" d="M73.84,288.84c0,.18-.1.35-.26.44l-31.01,17.91-2.84,1.64c-.08.05-.17.07-.26.07-.18,0-.35-.09-.44-.26-.14-.24-.06-.56.19-.7l2.36-1.36,30.73-17.74-11.41-6.59c-.16-.09-.26-.26-.26-.44s.1-.36.26-.44l11.29-6.52,1.71-.99,1.03.59-1.71.99-11.03,6.37,11.41,6.58c.16.09.26.26.26.44Z"></path>
              <path class="cls-12" d="M42.05,306.81c1.53.88,1.53,2.31,0,3.19-1.53.88-4,.88-5.53,0-1.53-.88-1.53-2.31,0-3.19,1.53-.88,4-.88,5.53,0Z"></path>
            </g>
            <g>
              <path class="cls-12" d="M171.88,344.75c0,.18-.1.35-.26.44l-30.2,17.44-3.65,2.11c-.08.04-.17.07-.26.07-.17,0-.35-.09-.44-.26-.14-.25-.05-.56.19-.7l3.18-1.83,29.91-17.27-11.41-6.59c-.16-.09-.26-.26-.26-.44s.1-.35.26-.44l10.68-6.17,1.71-.98,1.02.59-1.71.98-10.42,6.02,11.41,6.59c.16.09.26.26.26.44Z"></path>
              <path class="cls-12" d="M140.87,362.23c1.53.88,1.53,2.31,0,3.19-1.53.88-4,.88-5.53,0-1.53-.88-1.53-2.31,0-3.19,1.53-.88,4-.88,5.53,0Z"></path>
            </g>
            <path class="cls-12" d="M53.79,305.93c1.53.88,1.53,2.31,0,3.19-1.53.88-4,.88-5.53,0-1.53-.88-1.53-2.31,0-3.19,1.53-.88,4-.88,5.53,0Z"></path>
            <path class="cls-12" d="M59.66,320.02c1.53.88,1.53,2.31,0,3.19-1.53.88-4,.88-5.53,0-1.53-.88-1.53-2.31,0-3.19,1.53-.88,4-.88,5.53,0Z"></path>
            <path class="cls-12" d="M92.39,328.1c1.53.88,1.53,2.31,0,3.19-1.53.88-4,.88-5.53,0-1.53-.88-1.53-2.31,0-3.19,1.53-.88,4-.88,5.53,0Z"></path>
            <path class="cls-12" d="M92.54,339.98c1.53.88,1.53,2.31,0,3.19-1.53.88-4,.88-5.53,0-1.53-.88-1.53-2.31,0-3.19,1.53-.88,4-.88,5.53,0Z"></path>
            <path class="cls-12" d="M115.87,343.36c1.53.88,1.53,2.31,0,3.19-1.53.88-4,.88-5.53,0-1.53-.88-1.53-2.31,0-3.19,1.53-.88,4-.88,5.53,0Z"></path>
            <path class="cls-12" d="M127.37,347.88c1.53.88,1.53,2.31,0,3.19-1.53.88-4,.88-5.53,0-1.53-.88-1.53-2.31,0-3.19,1.53-.88,4-.88,5.53,0Z"></path>
          </g>
          <g>
            <path class="cls-12" d="M342.68,305.37c-.1.16-.27.26-.44.26-.09,0-.17-.02-.26-.07l-3.12-1.8-30.73-17.75c-.16-.09-.26-.26-.26-.44s.1-.35.26-.44l11.41-6.59-10.24-5.91-1.71-.98,1.02-.59,1.71.98,10.5,6.06c.16.09.26.26.26.44s-.1.35-.26.44l-11.41,6.59,30.6,17.67,2.48,1.43c.25.14.33.45.19.7Z"></path>
            <path class="cls-12" d="M236.52,366.82c-.1.16-.27.26-.44.26-.09,0-.17-.02-.26-.07l-3.02-1.74-30.83-17.8c-.16-.09-.26-.26-.26-.44s.1-.35.26-.44l11.41-6.59-10.02-5.79-1.7-.98,1.02-.59,1.7.98,10.28,5.94c.16.09.26.26.26.44s-.1.35-.26.44l-11.41,6.59,30.74,17.75,2.34,1.35c.25.14.33.45.19.7Z"></path>
            <path class="cls-12" d="M288.86,333.82c-.1.16-.27.26-.44.26-.09,0-.18-.02-.26-.07l-2.83-1.64-23.33-13.47c-.16-.09-.26-.26-.26-.44s.1-.35.26-.44l8.65-4.99-7.79-4.58-1.02-.6-6.53-3.84-1.69-1,1.02-.59,1.69.99,6.53,3.84,1.02.6,8.05,4.73c.16.09.25.26.25.44,0,.18-.1.35-.26.44l-8.64,4.99,23.43,13.53h0l1.96,1.13c.24.14.33.45.19.7Z"></path>
            <path class="cls-12" d="M331.23,332.47c-.1.16-.27.26-.44.26-.09,0-.17-.02-.26-.07l-3.02-1.74-42.53-24.56c-.16-.09-.26-.26-.26-.44s.1-.35.26-.44l15.62-9.02-16.19-9.35-1.71-.98,1.02-.59,1.71.98,16.46,9.5c.16.09.26.26.26.44s-.1.35-.26.44l-15.62,9.02,42.43,24.5,2.34,1.35c.25.14.33.45.19.7Z"></path>
            <path class="cls-12" d="M285.59,345.29c-.09.16-.27.26-.44.26-.09,0-.17-.02-.26-.07l-2.6-1.5-30.1-17.38-16.61,9.59c-.16.09-.36.09-.51,0l-17.63-10.18-1.7-.98,1.02-.59,1.7.98,16.87,9.74,16.61-9.59c.16-.09.36-.09.51,0l30.87,17.82,2.08,1.2c.25.14.33.45.19.7Z"></path>
            <path class="cls-12" d="M330.76,304.48c-.1.16-.27.26-.44.26-.09,0-.17-.02-.26-.07l-2.93-1.69-35.14-20.29-1.71-.99,1.02-.59,1.71.98,35.22,20.33,2.34,1.35c.25.14.33.45.19.7Z"></path>
            <path class="cls-12" d="M357.92,288.57c-.1.16-.27.26-.44.26-.09,0-.17-.02-.26-.07l-3.22-1.86-34.74-20.06-1.71-.98,1.02-.59,1.71.98,34.7,20.04,2.75,1.59c.25.14.33.45.19.7Z"></path>
            <path class="cls-12" d="M299.2,322.44c-.1.16-.27.26-.44.26-.09,0-.18-.02-.26-.07l-3.18-1.83-26.93-15.55-1.03-.59-6.61-3.82-1.71-.98,1.02-.59,1.71.98,6.61,3.82,1.03.59,26.83,15.49,2.76,1.59c.24.14.33.45.19.7Z"></path>
            <path class="cls-12" d="M248.22,352.16c-.09.16-.27.26-.44.26-.09,0-.17-.02-.26-.07l-2.95-1.7s0,0,0,0l-34.87-20.13-1.7-.98,1.02-.59,1.7.98,34.95,20.17,2.37,1.37c.25.14.33.46.19.7Z"></path>
            <polygon class="cls-12" points="285.83 295.18 269.41 304.66 268.39 305.25 263.88 307.85 262.85 308.44 242.28 320.32 239.2 322.1 238.69 321.21 241.43 319.63 261.84 307.85 262.86 307.25 267.36 304.66 268.39 304.06 283.78 295.18 277.11 291.33 275.41 290.35 276.43 289.75 278.14 290.74 285.83 295.18"></polygon>
            <path class="cls-12" d="M238.4,365.22c1.53.88,1.53,2.31,0,3.19-1.53.88-4,.88-5.53,0-1.53-.88-1.53-2.31,0-3.19,1.53-.88,4-.88,5.53,0Z"></path>
            <path class="cls-12" d="M250.4,350.44c1.53.88,1.53,2.31,0,3.19-1.53.88-4,.88-5.53,0-1.53-.88-1.53-2.31,0-3.19,1.53-.88,4-.88,5.53,0Z"></path>
            <path class="cls-12" d="M241.48,319.66c1.53.88,1.53,2.31,0,3.19-1.53.88-4,.88-5.53,0-1.53-.88-1.53-2.31,0-3.19,1.53-.88,4-.88,5.53,0Z"></path>
            <path class="cls-12" d="M288.27,343.67c1.53.88,1.53,2.31,0,3.19-1.53.88-4,.88-5.53,0-1.53-.88-1.53-2.31,0-3.19,1.53-.88,4-.88,5.53,0Z"></path>
            <path class="cls-12" d="M290.43,332.58c1.53.88,1.53,2.31,0,3.19-1.53.88-4,.88-5.53,0-1.53-.88-1.53-2.31,0-3.19,1.53-.88,4-.88,5.53,0Z"></path>
            <path class="cls-12" d="M301.51,320.28c1.53.88,1.53,2.31,0,3.19-1.53.88-4,.88-5.53,0-1.53-.88-1.53-2.31,0-3.19,1.53-.88,4-.88,5.53,0Z"></path>
            <path class="cls-12" d="M333.14,330.85c1.53.88,1.53,2.31,0,3.19-1.53.88-4,.88-5.53,0-1.53-.88-1.53-2.31,0-3.19,1.53-.88,4-.88,5.53,0Z"></path>
            <path class="cls-12" d="M332.96,302.78c1.53.88,1.53,2.31,0,3.19-1.53.88-4,.88-5.53,0-1.53-.88-1.53-2.31,0-3.19,1.53-.88,4-.88,5.53,0Z"></path>
            <path class="cls-12" d="M344.57,303.65c1.53.88,1.53,2.31,0,3.19s-4,.88-5.53,0c-1.53-.88-1.53-2.31,0-3.19,1.53-.88,4-.88,5.53,0Z"></path>
            <path class="cls-12" d="M360.08,286.49c1.53.88,1.53,2.31,0,3.19-1.53.88-4,.88-5.53,0-1.53-.88-1.53-2.31,0-3.19,1.53-.88,4-.88,5.53,0Z"></path>
          </g>
          <g>
            <path class="cls-12" d="M151.32,163.22c0,.18-.09.35-.25.44l-8.12,4.86-1.01.61-10.19,6.11-1.01.6-9.56,5.73,26.85,15.5,1.71.98-1.02.59-1.71-.98-27.09-15.64c-.16-.09-.25-.26-.26-.44,0-.18.09-.35.25-.44l9.81-5.88,1.01-.61,10.19-6.11,1.01-.61,7.86-4.71-15.07-8.7-2.55-1.47c-.24-.14-.33-.45-.19-.7.14-.25.45-.33.7-.19l3.02,1.74,15.35,8.86c.16.09.25.26.26.44Z"></path>
            <path class="cls-12" d="M59.53,249.5l-26.37-15.22,11.41-6.59c.16-.09.26-.26.26-.44s-.1-.35-.26-.44l-15.49-8.94-2.88-1.66c-.25-.14-.56-.06-.7.19-.14.24-.06.56.19.7l2.19,1.27,15.41,8.89-11.41,6.59c-.16.09-.26.26-.26.44s.1.35.26.44l26.63,15.37,1.02-.59Z"></path>
            <path class="cls-12" d="M113.18,219.31l-1.02.59-1.71-.98-18.34-10.59c-.16-.09-.26-.26-.26-.44s.1-.36.26-.44l8.65-5-21.17-12.45-2.01-1.18c-.25-.14-.33-.46-.18-.7.14-.24.46-.32.7-.18l2.56,1.51,21.37,12.57c.16.09.26.26.25.44,0,.18-.1.35-.26.44l-8.64,4.99,18.08,10.44,1.71.99Z"></path>
            <path class="cls-12" d="M136.1,205.99l-1.02.59-1.71-.98-28.53-16.47c-.16-.09-.26-.26-.26-.44s.1-.35.26-.44l12.59-7.27-16-9.24-3.38-1.96c-.25-.14-.33-.45-.19-.7.14-.25.45-.33.7-.19l3.86,2.23,16.29,9.41c.16.09.26.26.26.44s-.1.35-.26.44l-12.59,7.27,28.27,16.32,1.71.99Z"></path>
            <path class="cls-12" d="M100.27,226.81l-1.02.59-1.71-.98-18.63-10.75-13.32,7.69c-.16.09-.35.09-.51,0l-18.02-10.4-2.22-1.28c-.25-.14-.33-.45-.19-.7.14-.25.45-.33.7-.19l2.65,1.53,17.33,10.01,13.32-7.69c.16-.09.36-.09.51,0l19.39,11.19,1.71.98Z"></path>
            <path class="cls-12" d="M160.48,191.82l-1.02.59-1.71-.99-27-15.59-1.02-.58-8.36-4.83h0l-2.17-1.25c-.25-.14-.33-.45-.19-.7.14-.25.45-.33.7-.19l2.8,1.62,8.23,4.75,1.02.59,27.02,15.6,1.71.99Z"></path>
            <path class="cls-12" d="M171.86,185.2l-1.02.59-1.71-.98-27.19-15.68-1.02-.59-31.45-18.14-1.63-.94c-.25-.14-.33-.45-.19-.7.14-.25.45-.33.7-.19l2.39,1.38,31.18,17.99,1.02.59,27.2,15.69,1.71.98Z"></path>
            <path class="cls-12" d="M130.55,209.21l-1.02.59-1.71-.98-36.04-20.81h0l-2.41-1.4c-.25-.14-.33-.46-.19-.7.14-.25.45-.33.7-.19l3.02,1.74,35.94,20.75,1.71.98Z"></path>
            <path class="cls-12" d="M79.9,238.65l-1.02.59-1.71-.98-16.09-9.29-3.86-2.23c-.24-.14-.33-.45-.18-.7.14-.24.45-.33.7-.19l4.42,2.55,16.04,9.26,1.71.98Z"></path>
            <path class="cls-12" d="M29,214.71c1.53.88,1.53,2.31,0,3.19-1.53.88-4,.88-5.53,0s-1.53-2.31,0-3.19c1.53-.88,4-.88,5.53,0Z"></path>
            <path class="cls-12" d="M61.79,225.45c1.53.88,1.53,2.31,0,3.19-1.53.88-4,.88-5.53,0-1.53-.88-1.53-2.31,0-3.19,1.53-.88,4-.88,5.53,0Z"></path>
            <path class="cls-12" d="M47.37,209.6c1.53.88,1.53,2.31,0,3.19s-4,.88-5.53,0c-1.53-.88-1.53-2.31,0-3.19,1.53-.88,4-.88,5.53,0Z"></path>
            <path class="cls-12" d="M80.31,186.47c1.53.88,1.53,2.31,0,3.19-1.53.88-4,.88-5.53,0-1.53-.88-1.53-2.31,0-3.19,1.53-.88,4-.88,5.53,0Z"></path>
            <path class="cls-12" d="M53.43,202.02c1.53.88,1.53,2.31,0,3.19-1.53.88-4,.88-5.53,0-1.53-.88-1.53-2.31,0-3.19,1.53-.88,4-.88,5.53,0Z"></path>
            <path class="cls-12" d="M107.02,222.89l-1.02.59-1.71-.98-42.67-24.64-7.74,4.47-2.92,1.68c-.24.14-.56.06-.7-.19-.14-.24-.05-.56.19-.7l2.4-1.38,8.51-4.91c.16-.09.35-.09.51,0l43.44,25.08,1.71.98Z"></path>
            <path class="cls-12" d="M178.32,181.45l-1.02.59-1.71-.98-18.54-10.71c-.16-.09-.26-.26-.26-.44s.1-.35.26-.44l8.65-5-21.17-12.45-2.01-1.18c-.24-.14-.32-.46-.18-.7.14-.25.46-.33.7-.18l2.56,1.5,21.37,12.58c.16.09.25.26.25.44,0,.18-.1.35-.26.44l-8.64,4.99,18.29,10.56,1.71.98Z"></path>
            <path class="cls-12" d="M145.24,148.5c1.53.88,1.53,2.31,0,3.19-1.53.88-4,.88-5.53,0-1.53-.88-1.53-2.31,0-3.19,1.53-.88,4-.88,5.53,0Z"></path>
            <path class="cls-12" d="M92.66,184.44c1.53.88,1.53,2.31,0,3.19-1.53.88-4,.88-5.53,0-1.53-.88-1.53-2.31,0-3.19,1.53-.88,4-.88,5.53,0Z"></path>
            <path class="cls-12" d="M101.88,168.31c1.53.88,1.53,2.31,0,3.19-1.53.88-4,.88-5.53,0-1.53-.88-1.53-2.31,0-3.19,1.53-.88,4-.88,5.53,0Z"></path>
            <path class="cls-12" d="M110.88,146.7c1.53.88,1.53,2.31,0,3.19-1.53.88-4,.88-5.53,0-1.53-.88-1.53-2.31,0-3.19,1.53-.88,4-.88,5.53,0Z"></path>
            <path class="cls-12" d="M135.15,151.13c1.53.88,1.53,2.31,0,3.19-1.53.88-4,.88-5.53,0-1.53-.88-1.53-2.31,0-3.19,1.53-.88,4-.88,5.53,0Z"></path>
            <path class="cls-12" d="M122.31,166.83c1.53.88,1.53,2.31,0,3.19-1.53.88-4,.88-5.53,0-1.53-.88-1.53-2.31,0-3.19,1.53-.88,4-.88,5.53,0Z"></path>
          </g>
          <g>
            <path class="cls-12" d="M323.95,222.02c0,.18-.1.35-.26.44l-25.48,14.71-1.71.98-1.03-.59,1.71-.99,25.24-14.57-23.16-13.88-1-.61-5.71-3.42c-.16-.09-.25-.26-.25-.44,0-.18.1-.35.26-.44l15.35-8.86,3.02-1.74c.24-.14.56-.06.7.19.14.25.06.56-.18.7l-2.55,1.47-15.07,8.7,5.45,3.27,1.01.6,23.42,14.03c.15.1.25.26.25.44Z"></path>
            <path class="cls-12" d="M299.53,189.7l-2.01,1.18-21.17,12.45,8.65,4.99c.16.09.26.26.26.44s-.1.35-.26.44l-17.61,10.17-1.71.98-1.02-.59,1.71-.98,17.35-10.02-8.64-4.99c-.16-.09-.26-.26-.26-.44s.1-.35.25-.44l21.37-12.58,2.56-1.5c.25-.14.56-.06.7.18.14.24.06.56-.18.7Z"></path>
            <path class="cls-12" d="M277.67,167.48l-3.29,1.9-16.52,9.54,12.88,7.43c.16.09.26.26.26.44s-.1.35-.26.44l-29.5,17.03-1.71.99-1.03-.59,1.71-.98,29.25-16.89-12.88-7.43c-.16-.09-.26-.26-.26-.44s.1-.35.26-.44l16.91-9.76,3.68-2.12c.25-.14.56-.06.7.19.14.25.06.56-.19.7Z"></path>
            <path class="cls-12" d="M351.49,232.15l-2.2,1.27-14.87,8.58c-.16.09-.35.09-.51,0l-11.19-6.46-13.67,7.89-1.71.99-1.03-.59,1.71-.98,14.44-8.33c.16-.09.36-.09.51,0l11.19,6.46,14-8.08,2.81-1.62c.25-.14.56-.06.7.19.14.25.06.56-.19.7Z"></path>
            <path class="cls-12" d="M256.89,170.23l-2.17,1.25h0l-35.13,20.29-1.71.98-1.03-.59,1.71-.98,35.03-20.22,2.8-1.62c.25-.14.56-.06.7.19.14.25.06.56-.19.7Z"></path>
            <path class="cls-12" d="M269.27,150.36l-1.63.94-59.12,34.09-1.71.98-1.03-.59,1.71-.98,58.87-33.95,2.39-1.38c.25-.14.56-.06.7.19.14.25.06.56-.19.7Z"></path>
            <path class="cls-12" d="M287.75,187.51l-2.42,1.39-35.36,20.42-1.71.98-1.03-.59,1.71-.98,35.27-20.36,3.03-1.75c.25-.14.56-.06.7.19.14.25.06.56-.19.7Z"></path>
            <path class="cls-12" d="M249.43,187.05l-3.86,2.23-15.17,8.76-1.71.98-1.03-.59,1.71-.98,15.12-8.73,4.41-2.55c.25-.14.56-.06.7.19.14.25.06.56-.19.7Z"></path>
            <path class="cls-12" d="M244.86,185.75c-1.53.88-1.53,2.31,0,3.19,1.53.88,4,.88,5.53,0,1.53-.88,1.53-2.31,0-3.19-1.53-.88-4-.88-5.53,0Z"></path>
            <path class="cls-12" d="M348.4,229.83c-1.53.88-1.53,2.31,0,3.19,1.53.88,4,.88,5.53,0,1.53-.88,1.53-2.31,0-3.19-1.53-.88-4-.88-5.53,0Z"></path>
            <path class="cls-12" d="M296.81,187.36c-1.53.88-1.53,2.31,0,3.19,1.53.88,4,.88,5.53,0,1.53-.88,1.53-2.31,0-3.19-1.53-.88-4-.88-5.53,0Z"></path>
            <path class="cls-12" d="M323.69,202.91c-1.53.88-1.53,2.31,0,3.19,1.53.88,4,.88,5.53,0,1.53-.88,1.53-2.31,0-3.19-1.53-.88-4-.88-5.53,0Z"></path>
            <path class="cls-12" d="M326.86,204.71c-.14.25-.45.33-.7.19l-2.91-1.68-7.74-4.47-15.22,8.79-1.02.59-25.67,14.82-1.71.98-1.02-.59,1.71-.98,25.69-14.84,1.02-.58,15.98-9.22c.16-.09.36-.09.51,0l8.51,4.92,2.4,1.38c.24.14.33.45.19.7Z"></path>
            <path class="cls-12" d="M234.61,151.73l-2,1.18-21.17,12.45,8.65,4.99c.16.09.26.26.26.44s-.1.35-.26.44l-18.03,10.41-1.71.98-6.43,3.71c-.08.05-.17.07-.25.07-.18,0-.35-.09-.44-.26-.14-.25-.06-.56.18-.7l5.91-3.42,1.71-.98,17.77-10.26-8.64-4.99c-.16-.09-.25-.26-.26-.44,0-.18.1-.35.25-.44l21.37-12.58,2.56-1.5c.24-.14.56-.06.7.18.14.25.06.56-.18.7Z"></path>
            <path class="cls-12" d="M231.88,149.39c-1.53.88-1.53,2.31,0,3.19,1.53.88,4,.88,5.53,0,1.53-.88,1.53-2.31,0-3.19-1.53-.88-4-.88-5.53,0Z"></path>
            <path class="cls-12" d="M284.47,185.33c-1.53.88-1.53,2.31,0,3.19,1.53.88,4,.88,5.53,0,1.53-.88,1.53-2.31,0-3.19-1.53-.88-4-.88-5.53,0Z"></path>
            <path class="cls-12" d="M274.2,166.09c-1.53.88-1.53,2.31,0,3.19,1.53.88,4,.88,5.53,0,1.53-.88,1.53-2.31,0-3.19-1.53-.88-4-.88-5.53,0Z"></path>
            <path class="cls-12" d="M266.24,147.59c-1.53.88-1.53,2.31,0,3.19,1.53.88,4,.88,5.53,0,1.53-.88,1.53-2.31,0-3.19-1.53-.88-4-.88-5.53,0Z"></path>
            <path class="cls-12" d="M308.46,191.57c-1.53.88-1.53,2.31,0,3.19,1.53.88,4,.88,5.53,0,1.53-.88,1.53-2.31,0-3.19-1.53-.88-4-.88-5.53,0Z"></path>
            <path class="cls-12" d="M253.77,167.89c-1.53.88-1.53,2.31,0,3.19,1.53.88,4,.88,5.53,0,1.53-.88,1.53-2.31,0-3.19-1.53-.88-4-.88-5.53,0Z"></path>
          </g>
        </g>
      </g>
      <g>
        <g class="cls-37">
          <g class="cls-37">
            <path class="cls-19" d="M136.27,185.24l-8.49-4.93c-.93-.54-1.62-1.61-1.89-3.3l8.49,4.93c.27,1.69.95,2.76,1.89,3.3Z"></path>
            <g class="cls-22">
              <g class="cls-37">
                <path class="cls-9" d="M136.27,185.24l-8.49-4.93c-.93-.54-1.61-1.6-1.88-3.27l8.49,4.93c.27,1.67.95,2.73,1.88,3.27Z"></path>
                <path class="cls-9" d="M134.39,181.97l-8.49-4.93s0-.02,0-.03l8.49,4.93s0,.02,0,.03Z"></path>
              </g>
            </g>
          </g>
          <g>
            <path class="cls-19" d="M143.58,96.66l8.49,4.93c-2.48-1.44-5.91-1.26-9.76.96l-8.49-4.93c3.85-2.22,7.28-2.4,9.76-.96Z"></path>
            <g class="cls-28">
              <g class="cls-37">
                <path class="cls-9" d="M142.31,102.55l-8.49-4.93c3.85-2.22,7.28-2.4,9.76-.96l8.49,4.93c-2.48-1.44-5.91-1.26-9.76.96Z"></path>
              </g>
            </g>
          </g>
          <polygon class="cls-9" points="134.39 181.94 125.9 177 117.74 125.24 126.23 130.18 134.39 181.94"></polygon>
          <polygon class="cls-14" points="139.72 104.05 131.23 99.11 133.82 97.62 142.31 102.55 139.72 104.05"></polygon>
          <g class="cls-37">
            <path class="cls-36" d="M126.23,130.18l-8.49-4.93c-1.39-8.81,5.04-21.25,13.5-26.13l8.49,4.93c-8.46,4.88-14.89,17.32-13.5,26.13Z"></path>
            <g class="cls-27">
              <g class="cls-37">
                <path class="cls-14" d="M126.23,130.18l-8.49-4.93c-.42-2.68-.12-5.69.74-8.73l8.49,4.93c-.86,3.03-1.16,6.05-.74,8.73Z"></path>
                <path class="cls-14" d="M126.97,121.45l-8.49-4.93c.97-3.42,2.64-6.86,4.8-9.88l8.49,4.93c-2.15,3.02-3.83,6.46-4.8,9.88Z"></path>
                <path class="cls-14" d="M131.76,111.57l-8.49-4.93c1.65-2.31,3.57-4.37,5.67-5.99l8.49,4.93c-2.1,1.62-4.03,3.68-5.67,5.99Z"></path>
                <path class="cls-14" d="M137.44,105.58l-8.49-4.93c.74-.57,1.5-1.09,2.29-1.54l8.49,4.93c-.78.45-1.54.97-2.29,1.54Z"></path>
              </g>
            </g>
          </g>
          <path class="cls-2" d="M142.31,102.55c8.46-4.88,14.93.11,13.6,10.49l-7.84,60.99c-.62,4.82-3.72,8.84-6.82,10.64-3.11,1.79-6.22,1.36-6.86-2.73l-8.16-51.76c-1.39-8.81,5.04-21.25,13.5-26.13l2.59-1.49Z"></path>
        </g>
        <g class="cls-37">
          <g class="cls-37">
            <path class="cls-20" d="M151.7,102.99l5.91,3.44c-2.51-1.46-5.99-1.25-9.82.96l-5.91-3.44c3.84-2.22,7.31-2.42,9.82-.96Z"></path>
            <g class="cls-25">
              <g class="cls-37">
                <path class="cls-7" d="M147.79,107.39l-5.91-3.44c3.84-2.22,7.31-2.42,9.82-.96l5.91,3.44c-2.51-1.46-5.99-1.25-9.82.96Z"></path>
              </g>
            </g>
          </g>
          <path class="cls-7" d="M149.17,113.17c5.22-3.02,9.48-.59,9.5,5.42.02,6-4.21,13.33-9.44,16.34-5.22,3.02-9.49.59-9.5-5.41-.02-6,4.22-13.34,9.44-16.35Z"></path>
          <g class="cls-37">
            <path class="cls-20" d="M138.06,140.09l-5.91-3.44c-2.48-1.44-4.02-4.5-4.03-8.86-.02-8.76,6.14-19.44,13.77-23.85l5.91,3.44c-7.63,4.4-13.79,15.08-13.77,23.85.01,4.35,1.55,7.41,4.03,8.85Z"></path>
            <g class="cls-26">
              <g class="cls-37">
                <path class="cls-7" d="M138.06,140.09l-5.91-3.44c-2.2-1.28-3.66-3.84-3.97-7.44l5.91,3.44c.31,3.6,1.77,6.16,3.97,7.44Z"></path>
                <path class="cls-7" d="M134.09,132.65l-5.91-3.44c-.04-.45-.06-.93-.06-1.41-.02-7.56,4.56-16.54,10.71-21.69l5.91,3.44c-6.15,5.15-10.73,14.13-10.71,21.69,0,.49.02.96.06,1.41Z"></path>
                <path class="cls-7" d="M144.74,109.55l-5.91-3.44c.98-.82,2.01-1.55,3.06-2.16l5.91,3.44c-1.05.61-2.07,1.33-3.06,2.16Z"></path>
              </g>
            </g>
          </g>
          <g class="cls-37">
            <path class="cls-20" d="M149.17,113.17l-1.37-5.78c7.63-4.4,13.83-.87,13.85,7.9.02,8.76-6.14,19.44-13.76,23.84-7.63,4.4-13.83.87-13.86-7.89-.02-8.76,6.14-19.44,13.77-23.85l1.37,5.78c-5.22,3.01-9.46,10.35-9.44,16.35.01,6,4.28,8.43,9.5,5.41,5.22-3.01,9.46-10.34,9.44-16.34-.01-6.01-4.27-8.44-9.5-5.42Z"></path>
            <g class="cls-29">
              <g class="cls-37">
                <path class="cls-7" d="M149.17,113.17l-1.37-5.78c7.63-4.4,13.83-.87,13.85,7.9.02,8.76-6.14,19.44-13.76,23.84-7.63,4.4-13.83.87-13.86-7.89-.02-8.76,6.14-19.44,13.77-23.85l1.37,5.78c-5.22,3.01-9.46,10.35-9.44,16.35.01,6,4.28,8.43,9.5,5.41,5.22-3.01,9.46-10.34,9.44-16.34-.01-6.01-4.27-8.44-9.5-5.42Z"></path>
              </g>
            </g>
          </g>
        </g>
        <g>
          <path class="cls-1" d="M146.93,58.16l-15.33-50.04,15.33,50.04Z"></path>
          <rect class="cls-6" x="137.76" y="6.97" width="3.01" height="52.34" transform="translate(-3.6 42.24) rotate(-17.03)"></rect>
        </g>
        <g>
          <path class="cls-15" d="M165.19,215.3c-14.06-8.69-17.23-20.35-18.58-25.33,1.09,4.78,4.83,9.53,11.21,13.37,15.94,9.59,42.33,9.86,58.95.6,7.13-3.98,11.31-9.07,12.48-14.34-1.08,4.13-2.71,10.38-8.94,17.6-2.36,2.73-7.56,7.82-15.87,11.15-12.64,5.07-28.04,3.87-39.25-3.05Z"></path>
          <path class="cls-5" d="M217.04,101.35c15.54,9.35,15.01,24.26-1.19,33.29-16.2,9.03-41.92,8.77-57.46-.58-15.54-9.35-15.01-24.26,1.19-33.29,16.2-9.03,41.92-8.77,57.46.58Z"></path>
          <g class="cls-37">
            <path class="cls-4" d="M146.58,189.83l-12.53-54.75c1.46,6.38,6.32,12.56,14.61,17.55,20.71,12.47,55,12.81,76.59.77,9.27-5.17,14.69-11.78,16.22-18.63l-12.22,54.82c-1.18,5.27-5.35,10.36-12.48,14.34-16.61,9.26-43.01,9-58.95-.6-6.38-3.84-10.12-8.59-11.24-13.51Z"></path>
          </g>
          <path class="cls-9" d="M152.91,99.9c21.16-11.49,51.12-11.15,71.24.81-1.79-1.08-4.3-1-7.12.57-15.54-9.35-41.27-9.61-57.46-.58-16.2,9.03-16.73,23.93-1.19,33.29,15.54,9.35,41.27,9.61,57.46.58,16.2-9.03,16.73-23.93,1.19-33.29,2.82-1.57,5.33-1.65,7.12-.57,4.21,2.72,10.58,6.84,15.01,15.5,4.13,8.08,2.88,15.33,2.34,18.43-1.57,7.03-6.99,13.64-16.26,18.8-21.59,12.04-55.88,11.69-76.59-.77-8.28-4.98-13.14-11.15-14.61-17.53-.52-2.78-1.01-5.41-.51-9.53.62-5.16,2.68-9.06,2.77-9.22,1.54-2.88,5.64-10.53,16.6-16.48Z"></path>
        </g>
        <g>
          <path class="cls-14" d="M210.26,33.77c11.92,7.17,11.51,18.61-.91,25.53-12.42,6.93-32.16,6.73-44.08-.45-11.92-7.17-11.51-18.6.91-25.53,12.42-6.93,32.16-6.73,44.08.45Z"></path>
          <g class="cls-37">
            <path class="cls-4" d="M149.53,119.3c-19.19-11.87-23.4-27.58-23.55-38.67.03,8.91,5.75,17.81,17.23,24.72,23.66,14.24,62.84,14.64,87.5.89,12.69-7.08,19.07-16.52,19.04-25.97-.21,5.8-.53,8.8-2.86,15.3-1.83,5.09-5.09,9.42-6.85,11.75-.82,1.09-8.43,10.78-23.12,16.51-25.48,9.92-52.2,4.88-67.39-4.52Z"></path>
          </g>
          <path class="cls-5" d="M151.3,31.53c11.24-6.12,23.85-9.13,37.49-8.95,14.01.18,26.59,3.51,37.38,9.91-4.04-2.43-9.68-2.2-15.91,1.28-11.92-7.17-31.65-7.37-44.08-.45-12.42,6.93-12.83,18.36-.91,25.53,11.92,7.17,31.65,7.37,44.08.45,12.42-6.93,12.83-18.36.91-25.53,6.23-3.48,11.87-3.71,15.91-1.28,5.69,3.67,23,14.85,23.55,38.67.03,9.44-6.35,18.89-19.04,25.97-24.66,13.75-63.84,13.36-87.5-.88-11.48-6.91-17.2-15.82-17.23-24.72.13-3.46.27-7.39,1.79-12.18,1.79-5.68,3.34-8.12,5.9-12.16,2.02-3.19,8.31-10.56,17.66-15.65Z"></path>
          <path class="cls-13" d="M200.01,106.47c-20.04,2.36-41.64-1.08-56.83-10.23-11.42-6.87-17.14-15.72-17.23-24.57-.02-5.75,2.35-11.06,6.34-15.31.08,7.94,5.21,15.87,15.45,22.04,13.63,8.2,33,11.28,50.97,9.17.8,6.5,1.28,13.15,1.3,18.9Z"></path>
          <g class="cls-37">
            <path class="cls-9" d="M125.98,80.63l-.03-9.1c.03,8.91,5.75,17.81,17.23,24.72,23.66,14.24,62.84,14.64,87.5.88,12.69-7.08,19.07-16.52,19.04-25.97l.03,9.1c.03,9.44-6.35,18.89-19.04,25.97-24.66,13.75-63.84,13.36-87.5-.89-11.48-6.91-17.2-15.82-17.23-24.72Z"></path>
          </g>
          <g>
            <path class="cls-7" d="M136.01,80.9c-1.22,3.44-3.3,3.67-4.74.52-2.41-5.25.04-11.59,3.17-10.69.57.16.87.49,1.18.84,2,2.85.93,7.81.39,9.33Z"></path>
            <path class="cls-7" d="M171.09,96.46c-.91,5.16-7.4,6.03-10.68,1.43-3.42-4.8.33-10.34,5.12-9.74.18.02.41.07.58.1,4.22,1.22,5.45,5.54,4.98,8.21Z"></path>
          </g>
        </g>
        <path class="cls-7" d="M228.89,74.26c0-3.06-2.15-4.29-4.79-2.77s-4.79,5.24-4.79,8.3,2.15,4.29,4.79,2.77c2.65-1.53,4.79-5.24,4.79-8.3Z"></path>
        <g>
          <path class="cls-1" d="M224.72,77.09l34.93-26.22-34.93,26.22Z"></path>
          <path class="cls-6" d="M224.72,78.6c-.46,0-.91-.21-1.21-.6-.5-.67-.36-1.61.3-2.11l34.93-26.22c.66-.5,1.61-.37,2.11.3.5.66.36,1.61-.3,2.11l-34.93,26.22c-.27.2-.59.3-.9.3Z"></path>
        </g>
        <path class="cls-12" d="M268.52,49c0-4.49-3.64-8.12-8.12-8.12s-8.12,3.64-8.12,8.12,3.64,8.12,8.12,8.12,8.12-3.64,8.12-8.12Z"></path>
        <path class="cls-12" d="M138.99,8.12c0-4.49-3.64-8.12-8.12-8.12s-8.12,3.64-8.12,8.12,3.64,8.12,8.12,8.12,8.12-3.64,8.12-8.12Z"></path>
        <g class="cls-37">
          <g class="cls-37">
            <path class="cls-20" d="M236.07,132.15l5.91,3.44c-2.51-1.46-5.99-1.25-9.82.96l-5.91-3.44c3.84-2.22,7.31-2.42,9.82-.96Z"></path>
            <g class="cls-33">
              <g class="cls-37">
                <path class="cls-7" d="M232.16,136.55l-5.91-3.44c3.84-2.22,7.31-2.42,9.82-.96l5.91,3.44c-2.51-1.46-5.99-1.25-9.82.96Z"></path>
              </g>
            </g>
          </g>
          <path class="cls-7" d="M233.53,142.33c5.22-3.02,9.48-.59,9.5,5.42.02,6-4.21,13.33-9.44,16.34-5.23,3.02-9.49.59-9.5-5.41-.02-6,4.22-13.34,9.44-16.35Z"></path>
          <g class="cls-37">
            <path class="cls-20" d="M222.42,169.25l-5.91-3.44c-2.48-1.44-4.02-4.5-4.03-8.85-.02-8.76,6.14-19.44,13.77-23.85l5.91,3.44c-7.63,4.4-13.79,15.08-13.77,23.85.01,4.35,1.55,7.41,4.03,8.85Z"></path>
            <g class="cls-35">
              <g class="cls-37">
                <path class="cls-7" d="M222.42,169.25l-5.91-3.44c-2.2-1.28-3.66-3.84-3.97-7.44l5.91,3.44c.31,3.6,1.77,6.16,3.97,7.44Z"></path>
                <path class="cls-7" d="M218.46,161.81l-5.91-3.44c-.04-.45-.06-.93-.06-1.41-.02-7.56,4.56-16.54,10.71-21.69l5.91,3.44c-6.15,5.15-10.73,14.13-10.71,21.69,0,.49.02.96.06,1.41Z"></path>
                <path class="cls-7" d="M229.11,138.7l-5.91-3.44c.98-.82,2.01-1.55,3.06-2.16l5.91,3.44c-1.05.61-2.07,1.33-3.06,2.16Z"></path>
              </g>
            </g>
          </g>
          <g class="cls-37">
            <path class="cls-20" d="M233.53,142.33l-1.37-5.78c7.63-4.4,13.83-.86,13.85,7.9.02,8.76-6.14,19.43-13.76,23.84-7.63,4.4-13.83.87-13.86-7.89-.02-8.76,6.14-19.44,13.77-23.85l1.37,5.78c-5.22,3.01-9.46,10.35-9.44,16.35.01,6,4.28,8.43,9.5,5.41,5.22-3.01,9.46-10.34,9.44-16.34-.01-6.01-4.27-8.44-9.5-5.42Z"></path>
            <g class="cls-32">
              <g class="cls-37">
                <path class="cls-7" d="M233.53,142.33l-1.37-5.78c7.63-4.4,13.83-.86,13.85,7.9.02,8.76-6.14,19.43-13.76,23.84-7.63,4.4-13.83.87-13.86-7.89-.02-8.76,6.14-19.44,13.77-23.85l1.37,5.78c-5.22,3.01-9.46,10.35-9.44,16.35.01,6,4.28,8.43,9.5,5.41,5.22-3.01,9.46-10.34,9.44-16.34-.01-6.01-4.27-8.44-9.5-5.42Z"></path>
              </g>
            </g>
          </g>
        </g>
        <g class="cls-37">
          <g class="cls-37">
            <path class="cls-19" d="M236.14,223.39l-8.49-4.93c-.93-.54-1.62-1.61-1.89-3.3l8.49,4.93c.27,1.69.95,2.76,1.89,3.3Z"></path>
            <g class="cls-31">
              <g class="cls-37">
                <path class="cls-9" d="M236.14,223.39l-8.49-4.93c-.93-.54-1.61-1.6-1.88-3.27l8.49,4.93c.27,1.67.95,2.73,1.88,3.27Z"></path>
                <path class="cls-9" d="M234.26,220.12l-8.49-4.93s0-.02,0-.03l8.49,4.93s0,.02,0,.03Z"></path>
              </g>
            </g>
          </g>
          <g>
            <path class="cls-19" d="M243.45,134.81l8.49,4.93c-2.48-1.44-5.91-1.26-9.76.96l-8.49-4.93c3.85-2.22,7.28-2.4,9.76-.96Z"></path>
            <g class="cls-30">
              <g class="cls-37">
                <path class="cls-9" d="M242.18,140.7l-8.49-4.93c3.85-2.22,7.28-2.4,9.76-.96l8.49,4.93c-2.48-1.44-5.91-1.26-9.76.96Z"></path>
              </g>
            </g>
          </g>
          <polygon class="cls-9" points="234.25 220.09 225.76 215.15 217.6 163.39 226.09 168.33 234.25 220.09"></polygon>
          <polygon class="cls-14" points="239.59 142.2 231.1 137.26 233.69 135.77 242.18 140.7 239.59 142.2"></polygon>
          <g class="cls-37">
            <path class="cls-36" d="M226.09,168.33l-8.49-4.93c-1.39-8.81,5.04-21.25,13.5-26.13l8.49,4.93c-8.46,4.88-14.89,17.32-13.5,26.13Z"></path>
            <g class="cls-34">
              <g class="cls-37">
                <path class="cls-14" d="M226.09,168.33l-8.49-4.93c-.42-2.68-.12-5.69.74-8.73l8.49,4.93c-.86,3.03-1.16,6.05-.74,8.73Z"></path>
                <path class="cls-14" d="M226.83,159.6l-8.49-4.93c.97-3.42,2.64-6.86,4.8-9.88l8.49,4.93c-2.15,3.02-3.83,6.46-4.8,9.88Z"></path>
                <path class="cls-14" d="M231.63,149.72l-8.49-4.93c1.65-2.31,3.57-4.37,5.67-5.99l8.49,4.93c-2.1,1.62-4.03,3.68-5.67,5.99Z"></path>
                <path class="cls-14" d="M237.3,143.73l-8.49-4.93c.74-.57,1.51-1.09,2.29-1.54l8.49,4.93c-.78.45-1.54.97-2.29,1.54Z"></path>
              </g>
            </g>
          </g>
          <path class="cls-2" d="M242.18,140.7c8.46-4.88,14.93.11,13.6,10.49l-7.84,60.99c-.62,4.82-3.72,8.84-6.82,10.64-3.11,1.79-6.22,1.36-6.86-2.73l-8.16-51.76c-1.39-8.81,5.04-21.24,13.5-26.13l2.59-1.49Z"></path>
        </g>
      </g>
    </g>
  </g>
</svg>
